<svg width="1231" height="465" viewBox="0 0 1231 465" fill="none" xmlns="http://www.w3.org/2000/svg">
<rect y="40" width="1231" height="339" rx="20" fill="#0D3B66"/>
<g clip-path="url(#clip0_57_2)">
<path d="M949.597 37.0117C938.703 37.0117 929.936 42.0733 912.403 52.1964L547.802 262.699C547.45 262.902 547.101 263.103 546.756 263.303L542.421 250.298L524.168 244.393L521.484 248.687V283.583L521.53 283.553C521.511 283.759 521.501 283.965 521.501 284.173C521.501 290.463 530.268 295.524 547.802 305.648L797.508 449.815C815.042 459.939 823.809 465 834.703 465C845.597 465 854.364 459.939 871.898 449.815L1236.5 239.313C1253.81 229.32 1262.57 224.259 1262.79 218.081L1262.89 218.086V182.654L1248.39 186.949L1231.36 193.395L986.792 52.1964C969.258 42.0733 960.492 37.0117 949.597 37.0117Z" fill="#E44449"/>
<rect width="374.233" height="506.902" rx="21.4744" transform="matrix(0.866025 0.5 -0.866026 0.5 949.597 -5)" fill="#F15156"/>
<g clip-path="url(#clip1_57_2)">
<path d="M770.127 286.621C757.27 280.192 743.068 269.311 744.834 268.001C746.508 266.766 765.441 268.974 773.766 270.018C770.817 272.685 770.049 276.004 769.598 279.079C769.277 281.627 769.408 284.16 770.122 286.618L770.127 286.621Z" fill="#FA9700"/>
<path d="M769.603 279.082C770.054 276.007 770.817 272.685 773.771 270.02C776.15 270.319 777.67 270.52 777.67 270.52L778.074 290.018C775.605 289.189 772.898 288.007 770.132 286.624C769.423 284.163 769.286 281.633 769.608 279.084L769.603 279.082Z" fill="#F27006"/>
<path d="M814.233 261.157C816.628 262.753 818.675 264.317 820.112 265.742L786.34 265.509C786.34 265.509 785.992 264.631 785.474 263.258C790.094 261.555 795.839 261.115 801.169 260.851C805.583 260.666 809.97 260.742 814.228 261.154L814.233 261.157Z" fill="#F27006"/>
<path d="M781.981 246.553C784.251 245.534 803.093 253.731 814.233 261.157C809.975 260.744 805.588 260.668 801.174 260.854C795.844 261.117 790.089 261.558 785.479 263.26C783.677 258.451 779.842 247.52 781.986 246.556L781.981 246.553Z" fill="#FA9700"/>
<path d="M863.646 306.182C859.311 313.222 847.786 317.331 836.272 320.388L813.044 305.261L843.423 285.102C848.214 285.914 853.044 286.801 857.879 287.749C863.891 293.284 867.516 299.746 863.641 306.185L863.646 306.182Z" fill="#F27006"/>
<path d="M863.646 306.182C867.516 299.746 863.891 293.283 857.884 287.746C915.133 298.949 973.262 318.378 973.262 318.378L899.011 361.246L836.277 320.391C847.791 317.333 859.311 313.228 863.651 306.185L863.646 306.182Z" fill="#FA9700"/>
<path d="M744.709 268.484C753.395 268.383 761.274 272.435 766.498 276.445C770.927 279.939 772.511 283.807 772.586 287.81C760.154 282.094 745.336 271.175 744.704 268.487L744.709 268.484Z" fill="#FEB8AC"/>
<path d="M782.818 246.481C782.644 251.496 789.657 256.048 796.608 259.061C802.658 261.618 809.358 262.533 816.292 262.576C806.392 255.399 787.48 246.843 782.823 246.479L782.818 246.481Z" fill="#FEB8AC"/>
<path d="M855.486 310.436C873.968 299.766 845.678 279.439 831.791 269.826C817.899 260.216 793.717 259.161 780.196 266.967C766.676 274.773 768.502 288.735 785.148 296.756C801.793 304.776 837.005 321.106 855.486 310.436Z" fill="#FFF3DB"/>
<path d="M783.382 265.379C797.256 259.372 818.926 260.93 831.781 269.826C838.718 274.622 849.241 282.097 855.738 289.703C839.375 284.048 822.138 286.472 813.684 282.717C805.407 279.043 789.967 269.51 783.377 265.376L783.382 265.379Z" fill="#FA9700"/>
<path d="M777.44 268.809C784.596 272.617 801.112 281.529 807.476 286.307C813.979 291.188 809.781 301.14 819.576 310.587C806.401 306.836 793.46 300.757 785.148 296.756C769.734 289.331 767.041 276.822 777.445 268.812L777.44 268.809Z" fill="#FA9700"/>
<path d="M805.176 293.308C802.689 294.745 798.062 294.316 794.632 292.336C794.192 292.082 794.197 291.668 794.642 291.411C795.088 291.154 795.804 291.151 796.244 291.405C798.695 292.821 802.058 293.271 803.59 292.386C805.122 291.502 804.337 289.564 801.885 288.148C801.445 287.894 801.45 287.481 801.895 287.223C802.341 286.966 803.057 286.963 803.497 287.217C806.927 289.198 807.664 291.872 805.181 293.305L805.176 293.308Z" fill="#593A42"/>
<path d="M827.782 280.257C825.3 281.69 820.668 281.265 817.238 279.284C816.798 279.03 816.803 278.617 817.248 278.359C817.694 278.102 818.41 278.1 818.85 278.354C821.302 279.769 824.664 280.219 826.196 279.335C827.728 278.45 826.943 276.512 824.491 275.096C824.051 274.842 824.056 274.429 824.501 274.172C824.947 273.914 825.663 273.912 826.103 274.166C829.534 276.146 830.27 278.82 827.787 280.254L827.782 280.257Z" fill="#593A42"/>
<path d="M853.114 299.072C856.87 301.241 856.036 305.239 851.26 307.996C846.485 310.753 839.556 311.238 835.799 309.069C832.042 306.9 832.872 302.905 837.657 300.143C842.443 297.38 849.357 296.904 853.114 299.072Z" fill="#593A42"/>
<path d="M835.86 302.538C834.493 303.864 834.396 305.467 835.47 306.85C836.22 307.821 838.717 306.985 837.971 306.023C837.304 305.169 837.524 304.146 838.349 303.345C839.294 302.422 836.816 301.616 835.865 302.535L835.86 302.538Z" fill="#936170"/>
<path d="M837.276 307.246C836.642 307.458 836.288 308.005 836.722 308.376C836.939 308.559 837.131 308.745 837.347 308.928C837.786 309.297 838.57 309.472 839.299 309.234C839.928 309.025 840.292 308.473 839.848 308.107C839.632 307.924 839.435 307.735 839.223 307.555C838.784 307.186 838 307.011 837.271 307.249L837.276 307.246Z" fill="#936170"/>
<path d="M880.979 338.131C873.499 331.731 844.779 304.763 878.928 307.849C894.015 309.173 908.273 313.937 920.74 318.365C931.443 322.123 941.742 326.405 951.767 330.788L906.395 356.983C897.478 350.893 888.781 344.705 880.979 338.131Z" fill="#FFF3DB"/>
<path d="M1042.59 140.136C1043.09 140.094 1050 142.28 1054.22 143.637L1048.98 149.593L1044.3 146.893C1044.3 146.893 1041.87 140.196 1042.59 140.136Z" fill="#FEB8AC"/>
<path d="M1031.81 151.502C1030.81 149.969 1033.21 138.163 1037.52 136.372C1041.84 134.582 1056.76 140.762 1056.76 140.762L1054.23 143.637C1050 142.277 1043.1 140.094 1042.6 140.136C1041.88 140.196 1044.31 146.893 1044.31 146.893C1044.31 146.893 1045.51 155.125 1044.89 155.836C1044.27 156.548 1032.82 153.034 1031.82 151.502L1031.81 151.502Z" fill="#352328"/>
<path d="M1055.07 121.544C1054.15 121.372 1046.44 124.298 1046.44 124.298C1046.44 124.298 1042.84 125.787 1042.12 125.612C1041.41 125.436 1041.98 121.017 1044.74 119.477C1053.51 117.658 1077.27 120.693 1099.46 140.988L1094.14 140.62C1073.69 124.124 1055.08 121.541 1055.08 121.541L1055.07 121.544Z" fill="#352328"/>
<path d="M1046.44 124.295C1046.44 124.295 1054.15 121.366 1055.08 121.541C1055.08 121.541 1073.69 124.124 1094.14 140.62L1062.25 138.407L1046.44 124.295Z" fill="#FEB8AC"/>
<path d="M1039.17 175.698C1033.98 171.008 1048.97 158.676 1048.97 158.676C1039.85 140.209 1063.83 132.385 1087.96 136.165C1112.1 139.945 1199.85 187.559 1199.85 187.559L1146.02 218.633L1082.68 169.46C1056.85 183.908 1044.36 180.389 1039.17 175.698Z" fill="#593A42"/>
<path d="M1176.11 201.263L1146.03 218.633L1082.68 169.46C1082.68 169.46 1086.98 167.506 1091.76 164.318C1091.76 164.318 1154.4 191.871 1176.11 201.263Z" fill="#352328"/>
<path d="M1063.11 151.146C1067.76 153.829 1074.57 154.246 1078.32 152.082C1082.07 149.917 1081.34 145.985 1076.7 143.303C1072.05 140.62 1065.24 140.203 1061.49 142.367C1057.74 144.532 1058.47 148.464 1063.11 151.146Z" fill="#352328"/>
<path d="M1067.13 148.828C1068.59 149.67 1070.58 149.889 1071.57 149.314C1072.57 148.739 1072.2 147.592 1070.73 146.747C1069.27 145.902 1067.28 145.686 1066.29 146.261C1065.29 146.836 1065.66 147.983 1067.13 148.828Z" fill="#191113"/>
<path d="M1055.11 155.213C1056.57 156.055 1058.56 156.272 1059.55 155.696C1060.55 155.121 1060.17 153.974 1058.71 153.132C1057.26 152.29 1055.26 152.071 1054.27 152.646C1053.27 153.221 1053.65 154.368 1055.11 155.213Z" fill="#191113"/>
<path d="M1037.45 175.679C1040.39 177.38 1045.83 177.004 1049.58 174.839C1053.33 172.674 1053.98 169.536 1051.03 167.835C1048.09 166.134 1042.65 166.51 1038.9 168.675C1035.15 170.839 1034.5 173.975 1037.45 175.679Z" fill="#191113"/>
<path d="M1041.84 168.044C1043.65 167.426 1045.82 167.377 1047.71 167.864C1049.03 168.204 1047.89 169.334 1046.59 168.997C1045.43 168.697 1044.03 168.794 1042.95 169.168C1041.7 169.598 1040.6 168.473 1041.85 168.044L1041.84 168.044Z" fill="#593A42"/>
<path d="M1048.24 168.687C1048.53 168.401 1049.28 168.238 1049.78 168.44C1050.03 168.536 1050.28 168.627 1050.53 168.724C1051.03 168.926 1051.27 169.279 1050.94 169.607C1050.65 169.893 1049.9 170.056 1049.4 169.854C1049.16 169.754 1048.9 169.666 1048.65 169.57C1048.15 169.368 1047.91 169.015 1048.24 168.684L1048.24 168.687Z" fill="#593A42"/>
<path d="M1075.43 163.03C1075.43 163.03 1088.51 160.344 1091.53 164.586C1094.55 168.828 1072.89 169.096 1072.89 169.096C1072.89 169.096 1075.36 166.931 1075.43 163.033L1075.43 163.03Z" fill="#FEB8AC"/>
<path d="M1085.32 166.027C1081.89 165.977 1078.3 166.237 1075 166.835C1074.31 166.961 1074.03 166.333 1074.72 166.207C1078.09 165.597 1081.82 165.328 1085.33 165.378C1086.05 165.39 1086.05 166.036 1085.32 166.027Z" fill="#FC8686"/>
<path d="M1074.07 159.288C1076.39 161.881 1076.48 164.606 1074.82 167.363C1072.57 171.122 1067.81 173.262 1061.93 175.073C1061.29 175.27 1060.73 174.706 1061.38 174.512C1066.62 172.902 1070.73 171.129 1073.24 167.932C1075.37 165.213 1075.45 162.249 1073.09 159.616C1072.76 159.247 1073.74 158.921 1074.07 159.291L1074.07 159.288Z" fill="#352328"/>
<path d="M991.187 203.009C991.271 204.49 991.439 205.946 991.811 207.369C978.622 198.112 974.664 189.764 976.546 188.671C978.894 187.316 989.857 190.981 996.317 193.341C992.455 196.255 991.032 199.075 991.192 203.006L991.187 203.009Z" fill="#FA9700"/>
<path d="M991.187 203.009C991.026 199.078 992.455 196.261 996.312 193.344C999.141 194.376 1001.11 195.161 1001.11 195.161L996.265 210.305C994.675 209.323 993.193 208.34 991.806 207.372C991.438 205.946 991.265 204.493 991.182 203.012L991.187 203.009Z" fill="#FF740C"/>
<path d="M1039.92 181.063C1041.14 181.667 1042.38 182.3 1043.61 182.968L1017.39 185.766C1017.39 185.766 1016.15 184.736 1014.5 183.232C1018.36 182.049 1023.17 181.474 1027.02 181.018C1031.25 180.589 1035.68 180.619 1039.91 181.068L1039.92 181.063Z" fill="#FF740C"/>
<path d="M1006.15 171.58C1008.09 170.461 1023.35 172.918 1039.92 181.066C1035.69 180.616 1031.25 180.586 1027.03 181.015C1023.18 181.474 1018.36 182.046 1014.5 183.229C1010.43 179.536 1003.75 172.964 1006.15 171.577L1006.15 171.58Z" fill="#FA9700"/>
<path d="M980.49 190.955C981.097 190.45 997.878 196.115 998.085 197.212C998.292 198.308 996.608 206.26 995.293 205.964C993.973 205.664 979.29 191.95 980.495 190.952L980.49 190.955Z" fill="#FEB8AC"/>
<path d="M1010.1 173.86C1009.23 174.211 1019.04 183.899 1020.94 184.018C1022.84 184.138 1036.61 183.165 1036.1 182.406C1035.58 181.644 1011.82 173.167 1010.09 173.863L1010.1 173.86Z" fill="#FEB8AC"/>
<path d="M1081.11 256.111C1081.11 256.111 1020.29 232.778 1002.78 217.837C985.274 202.896 999.43 192.04 1005.71 188.416C1011.98 184.792 1030.79 176.619 1056.66 186.731C1082.54 196.84 1122.95 231.953 1122.95 231.953L1081.11 256.114L1081.11 256.111Z" fill="#FFF3DB"/>
<path d="M1006.68 187.879C1013.77 184.065 1031.99 177.097 1056.66 186.731C1082.54 196.841 1122.95 231.953 1122.95 231.953L1121.71 232.67C1098.18 207.682 1054.54 184.424 1006.68 187.879Z" fill="#FFF9EE"/>
<path d="M1028.83 199.216C1019.64 197.084 1010.17 189.474 1008.31 190.549C1006.45 191.624 1019.63 197.087 1023.32 202.395C1026.18 206.497 1006.94 211.107 998.062 212.989C988.359 200.567 1000.13 191.638 1005.7 188.419C1011.28 185.199 1026.45 178.524 1047.66 183.849C1044.79 188.503 1036.32 200.955 1028.83 199.216Z" fill="#FA9700"/>
<path d="M1019.02 228.303C1026.55 230.734 1034.83 232.484 1043.48 233.782C1060.8 236.398 1078.53 237.862 1094.11 243.158C1095.74 243.698 1097.86 244.379 1100.04 245.184L1081.11 256.111C1081.11 256.111 1043.61 241.719 1019.02 228.303Z" fill="#FA9700"/>
<path d="M1084.28 210.225C1082.03 205.234 1078.99 200.452 1074.79 196.105C1098.02 210.299 1122.95 231.953 1122.95 231.953L1104.03 242.88C1102.64 241.622 1101.45 240.4 1100.52 239.461C1091.34 230.472 1088.8 220.231 1084.28 210.225Z" fill="#FA9700"/>
<path d="M1006.67 187.876C1012.87 184.542 1027.58 178.805 1047.66 183.849C1046.72 185.389 1045.15 187.778 1043.21 190.227C1031.51 187.9 1019.24 186.968 1006.67 187.879L1006.67 187.876Z" fill="#FF9E10"/>
<path d="M1122.95 231.953L1121.71 232.67C1111.32 221.634 1097 210.937 1080.14 202.731C1078.6 200.439 1076.84 198.22 1074.79 196.108C1098.03 210.302 1122.96 231.956 1122.96 231.956L1122.95 231.953Z" fill="#FF9E10"/>
<path d="M1027.29 195.13C1027.59 194.953 1027.59 194.672 1027.29 194.498C1025.61 193.527 1025.08 192.197 1026.13 191.593C1027.17 190.989 1029.48 191.296 1031.16 192.267C1031.46 192.441 1031.95 192.439 1032.25 192.263C1032.56 192.086 1032.56 191.805 1032.26 191.631C1029.91 190.275 1026.74 189.982 1025.04 190.965C1023.34 191.948 1023.84 193.778 1026.19 195.134C1026.49 195.308 1026.98 195.306 1027.29 195.13Z" fill="#593A42"/>
<path d="M1012.46 203.687C1012.77 203.511 1012.77 203.229 1012.47 203.055C1010.79 202.085 1010.26 200.754 1011.3 200.15C1012.35 199.546 1014.65 199.854 1016.33 200.824C1016.64 200.998 1017.12 200.996 1017.43 200.82C1017.73 200.644 1017.74 200.362 1017.44 200.188C1015.09 198.833 1011.92 198.54 1010.22 199.522C1008.51 200.505 1009.02 202.335 1011.37 203.691C1011.67 203.865 1012.16 203.863 1012.46 203.687Z" fill="#593A42"/>
<path d="M1043.17 198.572C1044.99 202.437 1043 205.959 1037.85 208.66C1032.82 211.297 1024.71 212.252 1019.09 209.785C1018.53 209.535 1019.08 208.97 1019.66 209.22C1025.3 211.701 1032.76 210.459 1037.67 207.885C1042.26 205.471 1043.67 202.111 1042.08 198.737C1041.89 198.333 1042.99 198.165 1043.18 198.569L1043.17 198.572Z" fill="#593A42"/>
<path d="M1038.04 208.022C1035.97 206.835 1034.13 205.497 1031.72 204.512C1031.14 204.273 1031.7 203.706 1032.29 203.947C1034.78 204.966 1036.68 206.329 1038.84 207.559C1039.35 207.853 1038.56 208.313 1038.04 208.022Z" fill="#593A42"/>
<path d="M1021.9 206.177C1024.85 207.878 1030.28 207.502 1034.03 205.337C1037.78 203.172 1038.44 200.037 1035.49 198.333C1032.54 196.629 1027.11 197.008 1023.36 199.173C1019.61 201.338 1018.95 204.473 1021.9 206.177Z" fill="#593A42"/>
<path d="M1026.61 198.357C1028.41 197.739 1030.59 197.69 1032.48 198.178C1033.79 198.517 1032.66 199.647 1031.35 199.31C1030.19 199.01 1028.8 199.107 1027.72 199.481C1026.46 199.914 1025.36 198.786 1026.62 198.357L1026.61 198.357Z" fill="#936170"/>
<path d="M1033.01 198.997C1033.3 198.711 1034.05 198.548 1034.55 198.75C1034.8 198.847 1035.06 198.935 1035.3 199.034C1035.8 199.236 1036.04 199.589 1035.71 199.92C1035.43 200.208 1034.68 200.369 1034.18 200.167C1033.94 200.067 1033.68 199.982 1033.43 199.883C1032.93 199.686 1032.69 199.328 1033.02 199L1033.01 198.997Z" fill="#936170"/>
<path d="M910.835 188.472C914.397 187.06 899.929 175.574 905.18 170.253C910.431 164.933 920.145 156.334 911.388 156.595C902.635 156.854 882.536 166.341 884.564 172.795C886.603 179.25 902.482 191.787 910.84 188.474L910.835 188.472Z" fill="#352328"/>
<path d="M884.553 172.79C882.52 166.339 902.63 156.852 911.377 156.59C913.517 156.525 914.546 156.998 914.816 157.812C913.44 158.55 912.148 159.347 910.944 160.236C902.494 166.073 895.45 177.52 897.717 185.771C891.464 182.207 885.722 176.499 884.553 172.79Z" fill="#593A42"/>
<path d="M926.872 215.627C933.934 215.271 942.221 213.026 942.221 213.026C960.002 224.032 987.036 234.16 1012.09 242.136C951.98 238.019 926.877 215.63 926.877 215.63L926.872 215.627Z" fill="#EFDCBD"/>
<path d="M893.672 217.29C881.393 206.657 871.609 194.801 894.67 185.642C917.731 176.483 935.365 188.623 934.79 188.956C934.214 189.288 976.729 190.124 972.297 200.12C967.865 210.115 942.216 213.023 942.216 213.023C942.216 213.023 933.93 215.268 926.868 215.624C926.868 215.624 951.971 238.013 1012.08 242.13C1045.38 252.723 1075.19 259.518 1075.19 259.518L1007.57 298.557C961.125 273.736 906.331 228.251 893.672 217.284L893.672 217.29Z" fill="#FFF3DB"/>
<path d="M919.613 210.395C919.613 210.395 908.262 214.038 911.432 217.909C914.608 221.783 928.426 213.143 928.426 213.143C928.426 213.143 924.302 212.796 919.613 210.395Z" fill="#FEB8AC"/>
<path d="M968.874 191.097C972.067 192.941 971.358 196.335 967.294 198.682C963.229 201.029 957.35 201.438 954.157 199.594C950.964 197.751 951.673 194.356 955.737 192.01C959.802 189.663 965.686 189.257 968.874 191.097Z" fill="#593A42"/>
<path d="M923.064 199.55C925.177 198.33 924.545 196.058 921.634 194.377C921.263 194.163 920.651 194.163 920.271 194.382C919.89 194.602 919.886 194.952 920.262 195.169C922.348 196.373 923.011 198.022 921.71 198.774C920.408 199.525 917.553 199.142 915.467 197.938C915.096 197.724 914.484 197.723 914.104 197.943C913.723 198.162 913.719 198.513 914.095 198.73C917.006 200.411 920.942 200.775 923.054 199.556L923.064 199.55Z" fill="#593A42"/>
<path d="M935.499 192.371C937.611 191.151 936.98 188.879 934.068 187.198C933.698 186.984 933.086 186.983 932.705 187.203C932.325 187.423 932.321 187.773 932.697 187.99C934.783 189.194 935.446 190.843 934.145 191.595C932.843 192.346 929.987 191.963 927.901 190.759C927.531 190.545 926.919 190.544 926.538 190.764C926.158 190.983 926.154 191.334 926.53 191.55C929.441 193.231 933.377 193.596 935.489 192.376L935.499 192.371Z" fill="#593A42"/>
<path d="M916.261 215.869C918.416 214.402 921.036 213.095 923.868 212.071C924.447 211.862 924.959 212.388 924.379 212.597C921.623 213.589 919.102 214.862 916.997 216.294C916.556 216.595 915.825 216.167 916.261 215.869Z" fill="#FC8686"/>
<path d="M954.213 194.043C953.052 195.17 952.967 196.531 953.874 197.708C954.517 198.53 956.634 197.822 956.001 197.006C955.432 196.278 955.621 195.41 956.324 194.73C957.129 193.946 955.017 193.259 954.213 194.043Z" fill="#936170"/>
<path d="M955.418 198.044C954.878 198.225 954.575 198.691 954.95 199.005C955.137 199.16 955.299 199.323 955.482 199.474C955.851 199.786 956.521 199.936 957.14 199.733C957.674 199.555 957.983 199.086 957.608 198.772C957.421 198.617 957.259 198.454 957.076 198.303C956.707 197.991 956.037 197.841 955.423 198.042L955.418 198.044Z" fill="#936170"/>
<path d="M892.293 199.656C894.282 197.446 873.112 190.183 873.388 184.094C873.653 178.005 874.06 169.026 866.52 171.655C858.98 174.285 848.991 188.094 856.108 193.175C863.225 198.255 887.625 204.845 892.298 199.659L892.293 199.656Z" fill="#352328"/>
<path d="M992.726 251.56C982.79 247.228 982.925 239.838 988.048 233.952C996.025 236.87 1004.16 239.611 1012.09 242.138C1019.37 244.455 1026.48 246.589 1033.15 248.514C1023.97 254.496 1002.96 256.143 992.725 251.565L992.726 251.56Z" fill="#593A42"/>
<path d="M912.908 224.973C918.019 229.722 921.529 234.476 919.663 238.63C907.383 228.928 898.034 221.067 893.678 217.292C891.485 215.39 889.367 213.451 887.509 211.494C899.959 212.85 905.004 217.311 912.908 224.973Z" fill="#593A42"/>
<path d="M1036.25 282.009L1007.58 298.563C997.557 293.203 987.136 286.88 976.839 280.149C980.946 278.405 985.892 276.908 991.215 275.536C1009 271.083 1026.71 273.129 1036.26 282.009L1036.25 282.009Z" fill="#593A42"/>
<path d="M917.005 207.334C919.026 210.397 923.345 212.041 928.674 212.863C933.302 213.576 937.747 212.773 942.1 211.829C942.733 211.692 942.991 212.28 942.362 212.414C937.332 213.509 932.759 214.123 927.5 213.312C922.142 212.485 917.975 210.496 915.994 207.496C915.754 207.132 916.775 206.976 917.01 207.337L917.005 207.334Z" fill="#593A42"/>
<path d="M988.048 233.953L988.058 233.958C989.965 234.655 991.873 235.34 993.79 236.014C994.147 236.139 994.504 236.264 994.861 236.389C996.357 236.912 997.854 237.429 999.345 237.938C999.89 238.125 1000.44 238.307 1000.98 238.492C1002.33 238.952 1003.7 239.404 1005.05 239.852C1005.58 240.029 1006.11 240.202 1006.64 240.372C1008.46 240.969 1010.28 241.562 1012.08 242.136C1002.17 241.457 993.207 240.278 985.145 238.785C985.715 237.126 986.703 235.488 988.038 233.953L988.048 233.953Z" fill="#352328"/>
<path d="M856.103 193.171C848.986 188.091 858.981 174.285 866.515 171.652C868.682 170.898 870.187 171.102 871.233 171.919C868.977 176.692 867.665 181.633 868.581 186.504C870.214 194.562 879.546 198.175 890.86 200.644C883.936 203.825 862.667 197.857 856.103 193.171Z" fill="#593A42"/>
<path d="M1021.82 290.344C1021.82 290.344 971.214 257.261 929.788 251.494C888.362 245.732 879.222 261.882 882.69 272.219C882.69 272.219 878.994 282.287 868.69 287.944C868.69 287.944 891.654 295.844 903.616 279.538C903.616 279.538 922.151 270.303 945.865 280.122C969.574 289.943 971.304 319.508 971.304 319.508L1021.82 290.344Z" fill="#FF740C"/>
<path d="M882.496 272.708C898.503 270.829 903.616 279.538 903.616 279.538C891.659 295.847 868.69 287.945 868.69 287.945C877.653 283.027 881.613 274.776 882.491 272.705L882.496 272.708Z" fill="#FFF3DB"/>
<path d="M963.076 277.331C989.438 282.447 1004.81 290.084 1012.96 295.457L971.299 319.511C971.299 319.511 969.574 289.943 945.86 280.125C922.151 270.303 903.611 279.541 903.611 279.541C903.611 279.541 918.577 268.697 963.071 277.334L963.076 277.331Z" fill="#ED4714"/>
<path d="M866.391 290.362C870.618 290.439 874.149 289.125 874.277 287.424C874.405 285.729 871.078 284.294 866.851 284.218C862.624 284.141 859.097 285.458 858.969 287.153C858.841 288.848 862.168 290.283 866.396 290.359L866.391 290.362Z" fill="#593A42"/>
<path d="M893.559 257.685C892.719 256.703 895.754 250.705 898.779 250.203C901.804 249.7 923.727 258.549 924.901 262.169C926.065 265.789 902.227 259.604 900.06 259.474C897.888 259.341 903.414 262.109 901.714 262.394C900.02 262.682 895.464 259.907 893.559 257.685Z" fill="#593A42"/>
<path d="M889.481 269.885C890.88 270.693 892.737 270.933 893.628 270.419C894.519 269.904 894.103 268.832 892.704 268.024C891.306 267.217 889.448 266.976 888.557 267.491C887.666 268.005 888.077 269.075 889.481 269.885Z" fill="#593A42"/>
<path d="M891.86 276.08C896.202 277.038 900.317 279.616 896.965 282.282C896.408 282.723 895.125 282.311 895.687 281.867C898.421 279.689 895.001 277.685 891.478 276.905C890.605 276.713 890.982 275.885 891.86 276.08Z" fill="#593A42"/>
<path d="M862.524 285.066C863.247 284.946 863.949 284.866 864.705 284.869C866.615 284.873 866.452 286.577 864.552 286.572C864.059 286.571 863.596 286.656 863.127 286.733C861.294 287.038 860.7 285.372 862.529 285.069L862.524 285.066Z" fill="#936170"/>
<path d="M867.522 284.715C868.104 284.676 868.586 284.688 869.158 284.752C869.948 284.844 870.339 285.406 870.116 285.814C869.852 286.292 869.049 286.47 868.265 286.381C868.215 286.381 868.17 286.378 868.12 286.379C867.324 286.433 866.55 286.218 866.377 285.73C866.232 285.311 866.725 284.77 867.522 284.715Z" fill="#936170"/>
<path d="M824.406 332.484C824.406 332.484 820.017 329.442 817.239 326.057C819.78 326.12 822.337 326.053 824.852 325.817L826.473 330.383L824.401 332.487L824.406 332.484Z" fill="#EFDCBD"/>
<path d="M817.244 326.054C816.409 325.041 815.724 323.998 815.347 322.994C815.212 322.633 815.141 322.263 815.115 321.884C814.239 321.488 813.429 320.951 813.252 320.368C813.102 320.004 813.275 319.596 814.026 319.596C814.608 319.597 815.028 319.885 815.358 320.134C815.364 320.119 815.374 320.108 815.369 320.094C814.553 319.229 813.259 318.355 813.2 317.35C813.21 316.917 813.606 316.625 814.37 316.777C815.299 316.955 815.903 317.639 816.376 318.08C816.326 317.589 815.946 315.046 816.534 314.495C817.072 314.008 817.59 314.388 817.844 314.777C818.119 315.184 818.173 315.638 818.163 316.089C820.781 313.693 824.54 312.054 827.307 312.756C833.002 314.194 823.519 322.094 823.519 322.094L824.842 325.811C822.327 326.047 819.765 326.111 817.229 326.052L817.244 326.054Z" fill="#FFF3DB"/>
<path d="M806.107 335.509C806.107 335.509 803.065 330.325 805.432 329.974C807.793 329.627 809.376 333.621 809.376 333.621C809.376 333.621 811.275 327.348 814.04 327.915C816.809 328.485 814.55 332.666 814.55 332.666C814.55 332.666 826.843 327.938 830.246 326.989C833.648 326.04 840.289 325.591 837.74 329.431L843.289 334.178C843.289 334.178 853.553 326.221 861.048 329.005C868.539 331.786 869.827 335.443 868.64 336.128C867.454 336.813 864.803 336.311 864.803 336.311C864.803 336.311 870.743 339.012 869.068 340.664C867.957 341.762 863.868 340.401 863.868 340.401C863.868 340.401 869.067 344.449 866.465 345.842C865.079 346.586 860.852 344.694 860.852 344.694C860.852 344.694 862.002 349.606 858.896 350.212C855.796 350.821 847.539 349.829 847.539 349.829C847.539 349.829 863.575 353.601 867.966 356.819C872.353 360.039 870.424 361.324 866.882 361.337C866.882 361.337 876.567 365.9 880.485 371.931L844.113 392.93C844.113 392.93 809.813 346.394 805.741 341.297C805.741 341.297 795.524 337.155 797.4 335.279C799.246 333.432 806.097 335.503 806.097 335.503L806.107 335.509Z" fill="#FFF3DB"/>
<path d="M869.215 372.302C865.621 369.742 853.977 364.314 863.334 361.948C859.587 360.755 850.696 358.211 857.961 356.094C854.485 355.544 841.409 353.659 841.718 350.924C841.918 348.976 847.792 349.518 852.683 350.295C849.969 350.127 847.539 349.834 847.539 349.834C847.539 349.834 863.575 353.607 867.966 356.825C872.353 360.045 870.424 361.33 866.882 361.343C866.882 361.343 876.567 365.906 880.485 371.936L862.424 382.364C861.049 381.211 860.083 379.931 859.81 378.525C859.148 375.391 863.507 372.076 869.215 372.296L869.215 372.302Z" fill="#EFDCBD"/>
<path d="M826.338 314.08C827.965 315.812 822.147 321.631 822.147 321.631L824.378 330.896C824.378 330.896 817.667 322.779 817.295 321.807C816.923 320.834 824.287 311.914 826.328 314.08L826.338 314.08Z" fill="#FEB8AC"/>
<path d="M786.472 338.94C786.917 338.717 787.568 338.775 788.1 338.834C788.085 338.825 788.08 338.811 788.065 338.797C786.457 338.464 784.474 338.307 783.283 337.579C782.799 337.254 782.764 336.886 783.517 336.708C784.424 336.487 785.67 336.766 786.529 336.915C785.931 336.57 782.747 334.818 782.564 334.187C782.416 333.622 783.251 333.705 783.886 333.898C784.56 334.097 785.119 334.413 785.627 334.753C784.882 331.976 785.876 329.325 788.781 328.794C794.757 327.701 796.554 337.183 796.554 337.183L808.242 342.227L809.067 344.581C809.067 344.581 797.563 343.575 791.344 340.967C790.829 340.751 790.354 340.5 789.905 340.229C788.785 340.264 787.558 340.174 786.756 339.809C786.231 339.593 785.897 339.227 786.462 338.94L786.472 338.94Z" fill="#FFF3DB"/>
<path d="M789.543 330.153C792.753 330.822 794.965 337.364 794.965 337.364L807.311 342.782C807.311 342.782 792.868 339.916 791.477 339.333C790.085 338.749 785.508 329.309 789.543 330.147L789.543 330.153Z" fill="#FEB8AC"/>
<path d="M828.3 337.49C828.47 337.9 828.346 338.273 827.945 338.597C826.806 339.517 824.005 339.57 819.607 338.736C819.393 338.694 819.28 338.565 819.356 338.441C819.422 338.318 819.657 338.251 819.87 338.293C824.884 339.24 826.674 338.828 827.291 338.329C827.557 338.118 827.63 337.883 827.513 337.607C827.184 336.816 825.393 335.932 824.222 335.598C824.059 335.549 823.965 335.443 824.011 335.337C824.052 335.234 824.212 335.158 824.401 335.152C825.685 335.124 827.012 335.214 828.467 335.424C828.711 335.461 828.964 335.497 829.222 335.536C830.528 335.735 832.008 335.966 833.229 335.757C833.652 335.684 833.942 335.551 834.084 335.361C834.25 335.133 834.204 334.835 833.939 334.537C833.408 333.896 832.238 333.555 831.103 333.223L830.855 333.15C830.696 333.104 830.608 333.001 830.644 332.895C830.68 332.794 830.825 332.716 831.009 332.707C831.312 332.691 831.616 332.676 831.925 332.663C833.353 332.598 834.831 332.532 836.068 332.189C836.657 332.014 836.978 331.818 837.01 331.611C837.058 331.303 836.505 330.88 835.51 330.456C835.332 330.382 835.294 330.233 835.429 330.126C835.555 330.019 835.819 329.998 836.002 330.075C836.888 330.448 837.921 331.027 837.83 331.645C837.771 332.027 837.305 332.348 836.437 332.609C835.204 332.95 833.835 333.044 832.492 333.106C833.374 333.396 834.211 333.758 834.682 334.319C835.056 334.737 835.115 335.182 834.843 335.539C834.747 335.668 834.611 335.781 834.441 335.879C834.191 336.024 833.861 336.134 833.468 336.201C832.023 336.442 830.428 336.198 829.018 335.985C828.765 335.943 828.517 335.909 828.283 335.873C827.439 335.75 826.644 335.672 825.878 335.635C826.943 336.11 828.049 336.801 828.33 337.484L828.3 337.49Z" fill="#EFDCBD"/>
<path d="M829.762 344.854C829.643 344.745 829.7 344.604 829.89 344.529C830.079 344.459 830.333 344.49 830.451 344.598C831.032 345.125 831.868 345.567 833.008 345.947C835.213 346.66 836.115 346.579 836.475 346.388C837.171 345.987 835.977 345.043 835.587 344.76C835.035 344.332 834.357 344.027 833.573 343.857C833.399 343.827 833.265 343.801 833.171 343.781C832.972 343.736 832.869 343.607 832.935 343.489C833.006 343.368 833.226 343.304 833.434 343.338C833.588 343.363 833.732 343.389 833.881 343.423C834.755 343.569 836.131 343.682 836.775 343.487C836.945 343.434 837.04 343.368 837.081 343.276C837.132 343.167 837.098 343.078 836.985 342.989C836.393 342.543 834.037 342.362 832.962 342.366C832.734 342.367 832.556 342.264 832.557 342.132C832.559 342 832.739 341.896 832.968 341.895C833.007 341.895 836.588 341.917 837.629 342.697C837.901 342.9 837.983 343.138 837.871 343.385C837.774 343.607 837.523 343.786 837.149 343.899C836.72 344.027 836.167 344.066 835.6 344.057C835.823 344.185 836.035 344.319 836.232 344.474C837.569 345.454 837.859 346.251 837.033 346.728C835.782 347.393 833.388 346.618 832.6 346.359C831.347 345.936 830.417 345.446 829.767 344.856L829.762 344.854Z" fill="#EFDCBD"/>
<path d="M843.693 365.839C843.898 365.789 844.136 365.846 844.224 365.966C844.592 366.49 846.037 367.151 847.426 367.439C848.245 367.605 848.942 367.626 849.371 367.492C849.89 367.318 850.147 367.056 850.17 366.694C850.209 365.878 848.958 364.768 847.858 364.359C847.67 364.291 847.622 364.147 847.737 364.04C847.853 363.928 848.107 363.896 848.29 363.961C850.258 364.64 852.402 365.075 852.782 364.872C852.862 364.826 852.894 364.619 852.501 364.144C851.219 362.652 848.417 361.034 845.828 360.291C845.655 360.243 845.567 360.128 845.622 360.022C845.673 359.913 845.848 359.84 846.042 359.848C847.663 359.905 850.44 359.775 850.598 358.935C850.651 358.677 850.519 358.456 850.188 358.259C849.096 357.594 846.168 357.401 844.909 357.448C844.685 357.458 844.493 357.358 844.484 357.232C844.471 357.103 844.646 356.99 844.87 356.98C846.149 356.933 849.42 357.105 850.779 357.935C851.268 358.235 851.483 358.59 851.399 358.981C851.214 359.984 849.087 360.253 847.509 360.314C849.838 361.195 852.061 362.589 853.22 363.934C853.406 364.158 853.976 364.839 853.345 365.203C853.335 365.209 853.325 365.215 853.315 365.221C852.68 365.559 851.23 365.317 849.965 364.997C850.556 365.518 850.992 366.139 850.966 366.708C850.947 367.096 850.715 367.418 850.279 367.67C850.124 367.759 849.949 367.838 849.749 367.907C849.09 368.111 848.185 368.102 847.133 367.888C845.5 367.552 843.917 366.806 843.456 366.158C843.368 366.038 843.479 365.9 843.683 365.85L843.693 365.839Z" fill="#EFDCBD"/>
<path d="M823.218 359.15C823.235 359.021 823.42 358.92 823.649 358.925C823.868 358.929 824.045 359.038 824.029 359.167C823.928 360.259 824.909 361.496 826.708 361.679C827.354 361.717 827.897 361.609 828.233 361.38C828.594 361.132 828.687 360.764 828.488 360.366C828.439 360.263 828.515 360.156 828.67 360.095C828.834 360.04 829.038 360.054 829.167 360.128C830.561 360.933 832.077 361.501 832.525 361.396C832.755 361.332 832.815 361.257 832.836 361.206C832.999 360.826 832.047 360.103 831.643 359.794L831.534 359.708C831.396 359.606 831.427 359.462 831.617 359.381C831.792 359.303 832.051 359.325 832.184 359.425L832.292 359.51C832.85 359.936 833.886 360.725 833.625 361.321C833.585 361.418 833.494 361.539 833.299 361.652C833.188 361.716 833.038 361.779 832.849 361.832C831.921 362.048 830.401 361.407 829.397 360.902C829.359 361.198 829.172 361.466 828.856 361.683C828.33 362.038 827.542 362.201 826.583 362.145C824.238 361.906 823.1 360.423 823.218 359.15Z" fill="#EFDCBD"/>
<path d="M821.552 350.541C821.466 350.705 821.32 350.846 821.125 350.959C820.929 351.072 820.68 351.159 820.386 351.214C819.937 351.302 819.455 351.272 818.974 351.122C817.849 350.778 816.879 349.826 816.636 349.298C816.578 349.172 816.704 349.042 816.923 349.007C817.142 348.972 817.365 349.043 817.418 349.172C817.598 349.553 818.419 350.42 819.366 350.707C819.649 350.795 819.902 350.814 820.142 350.767C820.481 350.697 820.686 350.584 820.777 350.406C821.072 349.836 820.178 348.794 819.591 348.374C819.453 348.277 819.479 348.136 819.659 348.044C819.834 347.96 820.088 347.979 820.231 348.079C820.823 348.507 821.974 349.721 821.552 350.535L821.552 350.541Z" fill="#EFDCBD"/>
<path d="M816.034 348.39C816.034 348.39 815.999 348.41 815.984 348.419C815.564 348.662 814.966 348.744 814.32 348.637C812.608 348.313 811.866 346.07 811.875 345.272C811.881 345.143 812.062 345.039 812.286 345.035C812.509 345.037 812.687 345.14 812.691 345.269C812.682 346.125 813.492 347.986 814.564 348.188C814.927 348.247 815.23 348.209 815.436 348.073C815.756 347.871 815.835 347.5 815.62 347.168C815.541 347.048 815.647 346.912 815.857 346.866C816.066 346.819 816.299 346.878 816.378 346.999C816.706 347.494 816.565 348.055 816.034 348.39Z" fill="#EFDCBD"/>
<path d="M862.479 366.442C862.703 366.421 862.906 366.51 862.945 366.636C863.198 367.603 865.44 370.383 867.606 370.183C867.9 370.15 868.08 370.063 868.191 369.908C868.419 369.565 868.197 368.974 867.828 368.577C867.724 368.482 867.636 368.402 867.562 368.336C867.444 368.233 867.475 368.09 867.655 368.014C867.835 367.939 868.078 367.958 868.217 368.055C868.315 368.124 868.414 368.215 868.512 368.313C868.621 368.41 868.729 368.519 868.862 368.636C869.728 369.454 871.535 371.162 872.576 371.052C873.084 370.987 873.22 370.828 873.276 370.716C873.713 369.859 871.263 367.803 870.408 367.309C870.25 367.218 870.252 367.069 870.412 366.976C870.572 366.884 870.831 366.883 870.989 366.974C871.651 367.356 874.66 369.666 874.055 370.843C873.989 370.966 873.874 371.108 873.658 371.232C873.443 371.356 873.153 371.455 872.73 371.511C871.545 371.636 870.335 370.822 869.098 369.732C869.082 369.85 869.041 369.965 868.965 370.071C868.758 370.385 868.343 370.585 867.755 370.644C864.882 370.911 862.454 367.792 862.163 366.71C862.129 366.581 862.28 366.46 862.504 366.439L862.479 366.442Z" fill="#FFF3DB"/>
<path d="M837.391 374.483L837.338 374.388C837.264 374.265 837.385 374.133 837.599 374.089C837.809 374.048 838.042 374.113 838.11 374.233L838.164 374.328C838.813 375.477 840.175 377.87 842.36 378.155C842.668 378.188 843.061 378.201 843.211 378.086C843.497 377.864 843.197 377.135 842.514 376.394C842.405 376.28 842.487 376.136 842.681 376.075C842.881 376.011 843.124 376.053 843.232 376.167C843.572 376.531 844.622 377.774 843.865 378.359C843.83 378.385 843.79 378.414 843.75 378.437C843.414 378.631 842.891 378.693 842.181 378.612C839.543 378.269 838.084 375.71 837.391 374.477L837.391 374.483Z" fill="#EFDCBD"/>
<path d="M844.973 375.299C845.167 375.233 845.416 375.266 845.529 375.378C847.345 377.137 849.203 378.285 850.055 378.164C850.473 378.105 850.777 377.645 850.889 376.895C850.911 376.768 851.106 376.667 851.334 376.678C851.558 376.685 851.726 376.8 851.7 376.929C851.587 377.662 851.313 378.151 850.858 378.414C850.678 378.518 850.473 378.585 850.234 378.62C848.411 378.874 845.844 376.606 844.825 375.619C844.712 375.507 844.773 375.363 844.968 375.297L844.973 375.299Z" fill="#EFDCBD"/>
<path d="M847.177 339.348C850.581 340.533 855.929 339.055 859.116 336.045C862.302 333.035 862.121 329.63 858.717 328.445C855.312 327.26 849.964 328.738 846.777 331.748C843.591 334.758 843.772 338.163 847.177 339.348Z" fill="#593A42"/>
<path d="M852.156 329.31C853.829 328.721 856.133 328.629 857.787 329.249C858.699 329.591 857.651 330.361 856.749 330.026C855.768 329.662 854.136 329.742 853.157 330.09C852.233 330.418 851.217 329.647 852.151 329.313L852.156 329.31Z" fill="#936170"/>
<path d="M858.99 329.782C859.566 329.929 859.986 330.189 860.186 330.536C860.528 331.126 858.952 331.494 858.61 330.897C858.547 330.786 858.508 330.728 858.324 330.68C857.332 330.425 858.003 329.524 858.99 329.782Z" fill="#936170"/>
<path d="M839.049 334.771C839.983 335.311 841.25 335.447 841.886 335.08C842.522 334.713 842.281 333.978 841.352 333.442C840.423 332.905 839.146 332.763 838.51 333.13C837.874 333.497 838.115 334.232 839.049 334.771Z" fill="#593A42"/>
<path d="M831.681 339.025C832.615 339.565 833.882 339.701 834.518 339.334C835.153 338.967 834.913 338.232 833.983 337.696C833.054 337.159 831.777 337.018 831.142 337.385C830.506 337.752 830.747 338.486 831.681 339.025Z" fill="#593A42"/>
</g>
</g>
<g clip-path="url(#clip2_57_2)">
<path d="M535.597 -199.988C524.703 -199.988 515.936 -194.927 498.403 -184.804L133.802 25.6987C133.45 25.902 133.101 26.1033 132.756 26.3026L128.421 13.2981L110.168 7.39261L107.484 11.6875V46.5834L107.53 46.5533C107.511 46.7587 107.501 46.9653 107.501 47.1732C107.501 53.4629 116.268 58.5244 133.802 68.6475L383.508 212.816C401.042 222.939 409.809 228 420.703 228C431.597 228 440.364 222.939 457.898 212.816L822.498 2.31316C839.807 -7.67981 848.572 -12.7406 848.795 -18.9192L848.888 -18.9136V-54.3463L834.393 -50.0515L817.355 -43.6049L572.792 -184.804C555.258 -194.927 546.492 -199.988 535.597 -199.988Z" fill="#E44449"/>
<rect width="374.233" height="506.902" rx="21.4744" transform="matrix(0.866025 0.5 -0.866026 0.5 535.597 -242)" fill="#F15156"/>
<g clip-path="url(#clip3_57_2)">
<path d="M356.127 49.6213C343.27 43.1922 329.068 32.311 330.834 31.0008C332.508 29.7655 351.441 31.9738 359.766 33.0175C356.817 35.6847 356.049 39.0045 355.598 42.0789C355.277 44.6274 355.408 47.1599 356.122 49.6184L356.127 49.6213Z" fill="#FA9700"/>
<path d="M355.603 42.0816C356.054 39.0071 356.817 35.6845 359.771 33.0202C362.15 33.3188 363.67 33.52 363.67 33.52L364.074 53.0182C361.605 52.1886 358.898 51.0067 356.132 49.624C355.423 47.1625 355.286 44.633 355.608 42.0845L355.603 42.0816Z" fill="#F27006"/>
<path d="M449.646 69.1818C445.311 76.2221 433.786 80.3306 422.272 83.388L399.044 68.2607L429.423 48.1018C434.214 48.9142 439.044 49.8013 443.879 50.7486C449.891 56.2836 453.516 62.7463 449.641 69.1847L449.646 69.1818Z" fill="#F27006"/>
<path d="M449.646 69.1817C453.517 62.7462 449.891 56.2835 443.884 50.7455C501.133 61.9493 559.262 81.3777 559.262 81.3777L485.011 124.246L422.277 83.3907C433.791 80.3333 445.311 76.2277 449.651 69.1845L449.646 69.1817Z" fill="#FA9700"/>
<path d="M330.709 31.4838C339.395 31.3832 347.274 35.4353 352.498 39.4454C356.927 42.9386 358.511 46.8069 358.586 50.8099C346.154 45.0944 331.336 34.1752 330.704 31.4866L330.709 31.4838Z" fill="#FEB8AC"/>
<path d="M441.486 73.4361C459.968 62.766 431.678 42.4391 417.791 32.826C403.899 23.2159 379.717 22.1611 366.196 29.9672C352.676 37.7733 354.502 51.7352 371.148 59.7557C387.793 67.7763 423.005 84.1063 441.486 73.4361Z" fill="#FFF3DB"/>
<path d="M369.382 28.3789C383.256 22.3721 404.926 23.93 417.781 32.826C424.718 37.6224 435.241 45.0967 441.738 52.7035C425.375 47.0482 408.138 49.4717 399.684 45.7175C391.407 42.043 375.967 32.5104 369.377 28.376L369.382 28.3789Z" fill="#FA9700"/>
<path d="M363.44 31.8095C370.596 35.6172 387.112 44.5286 393.476 49.307C399.979 54.1884 395.781 64.1402 405.576 73.5872C392.401 69.8358 379.46 63.7574 371.148 59.7557C355.734 52.3309 353.041 39.8224 363.445 31.8123L363.44 31.8095Z" fill="#FA9700"/>
<path d="M391.176 56.3082C388.689 57.7446 384.062 57.3163 380.632 55.3358C380.192 55.0818 380.197 54.6682 380.642 54.411C381.088 54.1538 381.804 54.1512 382.244 54.4052C384.695 55.8206 388.058 56.2707 389.59 55.3864C391.122 54.502 390.337 52.5635 387.885 51.1481C387.445 50.8941 387.45 50.4805 387.895 50.2233C388.341 49.9661 389.057 49.9635 389.497 50.2175C392.927 52.198 393.664 54.8718 391.181 56.3053L391.176 56.3082Z" fill="#593A42"/>
<path d="M413.782 43.2566C411.3 44.69 406.668 44.2647 403.238 42.2841C402.798 42.0302 402.803 41.6166 403.248 41.3594C403.694 41.1022 404.41 41.0995 404.85 41.3535C407.302 42.769 410.664 43.2191 412.196 42.3347C413.728 41.4504 412.943 39.5119 410.491 38.0964C410.051 37.8424 410.056 37.4289 410.501 37.1717C410.947 36.9144 411.663 36.9118 412.103 37.1658C415.534 39.1464 416.27 41.8202 413.787 43.2537L413.782 43.2566Z" fill="#593A42"/>
<path d="M439.114 62.0724C442.87 64.2413 442.036 68.239 437.26 70.9962C432.485 73.7533 425.556 74.2381 421.799 72.0692C418.042 69.9003 418.872 65.9055 423.657 63.1425C428.443 60.3796 435.357 59.9035 439.114 62.0724Z" fill="#593A42"/>
<path d="M421.86 65.5382C420.493 66.8642 420.396 68.467 421.47 69.8502C422.22 70.821 424.717 69.9848 423.971 69.0226C423.304 68.1692 423.524 67.1461 424.349 66.3447C425.294 65.4223 422.816 64.6157 421.865 65.5353L421.86 65.5382Z" fill="#936170"/>
<path d="M423.276 70.2458C422.642 70.4578 422.288 71.0047 422.722 71.3764C422.939 71.5595 423.131 71.7454 423.347 71.9284C423.786 72.2973 424.57 72.4725 425.299 72.2343C425.928 72.0253 426.292 71.4725 425.848 71.1066C425.632 70.9236 425.435 70.7347 425.223 70.5546C424.784 70.1857 424 70.0105 423.271 70.2487L423.276 70.2458Z" fill="#936170"/>
<path d="M466.979 101.131C459.499 94.7308 430.779 67.763 464.928 70.8491C480.015 72.1726 494.273 76.9366 506.74 81.3654C517.443 85.1229 527.742 89.4046 537.767 93.7878L492.395 119.983C483.478 113.893 474.781 107.705 466.979 101.131Z" fill="#FFF3DB"/>
<path d="M479.672 -19.7102C467.393 -30.3428 457.609 -42.1993 480.67 -51.3584C503.731 -60.5174 521.365 -48.3765 520.79 -48.0441C520.214 -47.7118 562.729 -46.8761 558.297 -36.8803C553.865 -26.8846 528.216 -23.9767 528.216 -23.9767C528.216 -23.9767 519.93 -21.7323 512.868 -21.3763C512.868 -21.3763 537.971 1.01274 598.083 5.12995C631.378 15.7233 661.189 22.5184 661.189 22.5184L593.571 61.5575C547.125 36.7363 492.331 -8.74868 479.672 -19.7159L479.672 -19.7102Z" fill="#FFF3DB"/>
<path d="M622.254 45.0086L593.581 61.5629C583.557 56.2033 573.136 49.8802 562.839 43.1489C566.947 41.4051 571.892 39.9081 577.215 38.536C595.001 34.083 612.712 36.1292 622.264 45.0085L622.254 45.0086Z" fill="#593A42"/>
<path d="M607.817 53.344C607.817 53.344 557.214 20.2614 515.788 14.4937C474.362 8.7317 465.222 24.8817 468.69 35.219C468.69 35.219 464.994 45.2867 454.69 50.9445C454.69 50.9445 477.654 58.8444 489.616 42.5376C489.616 42.5376 508.151 33.3032 531.865 43.1216C555.573 52.9429 557.304 82.5077 557.304 82.5077L607.817 53.344Z" fill="#FF740C"/>
<path d="M468.496 35.708C484.503 33.8289 489.616 42.5377 489.616 42.5377C477.659 58.8473 454.69 50.9445 454.69 50.9445C463.653 46.0269 467.613 37.7761 468.491 35.7052L468.496 35.708Z" fill="#FFF3DB"/>
<path d="M549.076 40.3307C575.438 45.4469 590.809 53.0844 598.962 58.4566L557.299 82.5107C557.299 82.5107 555.574 52.943 531.86 43.1246C508.151 33.3033 489.611 42.5406 489.611 42.5406C489.611 42.5406 504.577 31.6966 549.071 40.3336L549.076 40.3307Z" fill="#ED4714"/>
<path d="M452.391 53.3623C456.618 53.4387 460.149 52.1249 460.277 50.4244C460.405 48.7295 457.078 47.2943 452.851 47.2178C448.624 47.1413 445.097 48.458 444.969 50.1528C444.841 51.8476 448.168 53.2829 452.396 53.3594L452.391 53.3623Z" fill="#593A42"/>
<path d="M477.86 39.0799C482.202 40.0376 486.317 42.6158 482.965 45.2816C482.408 45.723 481.125 45.3113 481.687 44.867C484.421 42.6888 481.001 40.6852 477.478 39.9055C476.605 39.7134 476.982 38.8849 477.86 39.0799Z" fill="#593A42"/>
<path d="M448.524 48.0664C449.246 47.9461 449.949 47.866 450.705 47.8689C452.615 47.8735 452.452 49.577 450.552 49.5725C450.059 49.5714 449.596 49.6564 449.127 49.7328C447.294 50.0381 446.7 48.3718 448.529 48.0693L448.524 48.0664Z" fill="#936170"/>
<path d="M453.522 47.7152C454.104 47.6757 454.586 47.6883 455.158 47.7523C455.948 47.8442 456.339 48.4056 456.116 48.8142C455.852 49.2919 455.049 49.47 454.265 49.381C454.215 49.3812 454.17 49.3784 454.12 49.3786C453.324 49.4332 452.55 49.2178 452.377 48.7302C452.232 48.3115 452.725 47.7698 453.522 47.7152Z" fill="#936170"/>
<path d="M410.406 95.4843C410.406 95.4843 406.017 92.4418 403.239 89.0574C405.78 89.12 408.337 89.0532 410.852 88.8171L412.473 93.3832L410.401 95.4872L410.406 95.4843Z" fill="#EFDCBD"/>
<path d="M403.243 89.0544C402.409 88.0409 401.724 86.998 401.347 85.9943C401.212 85.6329 401.141 85.2627 401.115 84.8837C400.239 84.4877 399.429 83.9508 399.252 83.3684C399.102 83.0043 399.275 82.5958 400.026 82.596C400.608 82.5967 401.028 82.8853 401.358 83.1339C401.364 83.1195 401.374 83.108 401.369 83.0937C400.553 82.2293 399.259 81.3553 399.2 80.3504C399.21 79.9167 399.606 79.6252 400.37 79.7775C401.299 79.955 401.903 80.6392 402.376 81.0797C402.326 80.5888 401.946 78.0458 402.534 77.4951C403.072 77.0078 403.59 77.3879 403.844 77.7775C404.118 78.1843 404.173 78.6379 404.163 79.0888C406.781 76.6927 410.54 75.0536 413.307 75.7557C419.002 77.1938 409.519 85.0943 409.519 85.0943L410.842 88.8114C408.327 89.0474 405.765 89.1113 403.229 89.0516L403.243 89.0544Z" fill="#FFF3DB"/>
<path d="M392.107 98.5087C392.107 98.5087 389.065 93.3247 391.432 92.9743C393.793 92.6268 395.376 96.6215 395.376 96.6215C395.376 96.6215 397.275 90.3482 400.04 90.9154C402.809 91.4854 400.55 95.6664 400.55 95.6664C400.55 95.6664 412.843 90.9376 416.246 89.989C419.648 89.0404 426.289 88.5911 423.74 92.4314L429.289 97.1784C429.289 97.1784 439.553 89.2205 447.048 92.0047C454.539 94.786 455.827 98.4429 454.64 99.1278C453.454 99.8128 450.803 99.3112 450.803 99.3112C450.803 99.3112 456.743 102.012 455.068 103.664C453.957 104.762 449.868 103.401 449.868 103.401C449.868 103.401 455.067 107.449 452.465 108.842C451.079 109.586 446.852 107.694 446.852 107.694C446.852 107.694 448.002 112.606 444.896 113.212C441.796 113.821 433.539 112.829 433.539 112.829C433.539 112.829 449.574 116.601 453.966 119.819C458.353 123.039 456.424 124.324 452.882 124.337C452.882 124.337 462.567 128.9 466.485 134.931L430.113 155.93C430.113 155.93 395.813 109.394 391.741 104.297C391.741 104.297 381.524 100.155 383.4 98.2791C385.246 96.4315 392.097 98.503 392.097 98.503L392.107 98.5087Z" fill="#FFF3DB"/>
<path d="M455.215 135.302C451.621 132.742 439.977 127.314 449.334 124.948C445.587 123.755 436.696 121.211 443.961 119.094C440.485 118.544 427.409 116.659 427.718 113.924C427.918 111.976 433.792 112.518 438.683 113.295C435.969 113.127 433.539 112.834 433.539 112.834C433.539 112.834 449.575 116.607 453.966 119.825C458.353 123.045 456.424 124.33 452.882 124.343C452.882 124.343 462.567 128.906 466.485 134.936L448.424 145.364C447.049 144.211 446.083 142.931 445.81 141.525C445.148 138.391 449.507 135.076 455.215 135.296L455.215 135.302Z" fill="#EFDCBD"/>
<path d="M412.338 77.0801C413.965 78.8116 408.147 84.631 408.147 84.631L410.378 93.896C410.378 93.896 403.667 85.7789 403.295 84.8067C402.923 83.8345 410.287 74.9136 412.328 77.0801L412.338 77.0801Z" fill="#FEB8AC"/>
<path d="M372.472 101.94C372.917 101.718 373.568 101.775 374.1 101.834C374.085 101.825 374.08 101.811 374.065 101.797C372.457 101.464 370.474 101.307 369.283 100.579C368.799 100.254 368.764 99.8861 369.517 99.7081C370.424 99.4866 371.67 99.7663 372.529 99.9154C371.931 99.5701 368.747 97.8184 368.564 97.1873C368.416 96.6221 369.251 96.7052 369.886 96.8982C370.56 97.0967 371.119 97.4135 371.627 97.7534C370.882 94.9762 371.876 92.3247 374.781 91.7943C380.757 90.7013 382.554 100.183 382.554 100.183L394.242 105.227L395.067 107.581C395.067 107.581 383.563 106.575 377.344 103.967C376.829 103.751 376.354 103.5 375.905 103.229C374.785 103.264 373.558 103.174 372.756 102.809C372.231 102.593 371.897 102.227 372.462 101.94L372.472 101.94Z" fill="#FFF3DB"/>
<path d="M375.543 93.1529C378.753 93.8218 380.965 100.364 380.965 100.364L393.311 105.782C393.311 105.782 378.868 102.916 377.477 102.333C376.085 101.749 371.508 92.309 375.543 93.1472L375.543 93.1529Z" fill="#FEB8AC"/>
<path d="M414.3 100.49C414.47 100.9 414.346 101.274 413.945 101.597C412.806 102.517 410.005 102.57 405.607 101.736C405.393 101.694 405.28 101.565 405.356 101.441C405.422 101.318 405.657 101.251 405.87 101.293C410.884 102.24 412.674 101.828 413.291 101.329C413.557 101.118 413.629 100.883 413.513 100.607C413.184 99.816 411.393 98.9323 410.222 98.5977C410.059 98.5494 409.965 98.4435 410.011 98.3371C410.052 98.2336 410.212 98.1583 410.401 98.1519C411.685 98.1242 413.012 98.2142 414.467 98.4242C414.711 98.4607 414.964 98.4971 415.222 98.5364C416.528 98.7355 418.008 98.9656 419.229 98.7572C419.652 98.6839 419.942 98.5507 420.084 98.3607C420.25 98.1332 420.204 97.8347 419.938 97.537C419.408 96.8956 418.238 96.5553 417.103 96.2234L416.855 96.1497C416.696 96.1043 416.608 96.0012 416.644 95.8948C416.68 95.7942 416.825 95.7161 417.009 95.7068C417.312 95.6914 417.616 95.6759 417.925 95.6633C419.353 95.5978 420.831 95.5321 422.068 95.1887C422.657 95.0142 422.978 94.8178 423.01 94.6109C423.058 94.3034 422.505 93.8804 421.51 93.4562C421.332 93.3821 421.294 93.2329 421.429 93.1262C421.555 93.0195 421.819 92.9984 422.002 93.0753C422.888 93.4483 423.921 94.0275 423.83 94.6452C423.771 95.0274 423.305 95.3479 422.437 95.6095C421.204 95.95 419.835 96.044 418.492 96.1064C419.374 96.3961 420.211 96.7577 420.682 97.3189C421.055 97.7368 421.115 98.1817 420.843 98.5388C420.747 98.6684 420.611 98.7809 420.441 98.8792C420.191 99.0237 419.861 99.134 419.468 99.2015C418.022 99.4423 416.428 99.1982 415.018 98.9851C414.765 98.943 414.517 98.9094 414.283 98.8729C413.439 98.7496 412.644 98.6721 411.878 98.6347C412.943 99.1104 414.049 99.8014 414.33 100.484L414.3 100.49Z" fill="#EFDCBD"/>
<path d="M415.762 107.854C415.643 107.745 415.7 107.604 415.89 107.529C416.079 107.459 416.333 107.49 416.451 107.598C417.032 108.125 417.868 108.567 419.008 108.947C421.213 109.66 422.115 109.579 422.475 109.388C423.171 108.987 421.977 108.043 421.587 107.761C421.035 107.332 420.357 107.027 419.573 106.857C419.399 106.827 419.265 106.801 419.171 106.781C418.972 106.736 418.869 106.607 418.935 106.489C419.006 106.368 419.226 106.304 419.434 106.338C419.588 106.363 419.732 106.389 419.881 106.423C420.755 106.569 422.131 106.682 422.775 106.487C422.945 106.435 423.04 106.368 423.081 106.276C423.132 106.167 423.098 106.078 422.985 105.989C422.393 105.543 420.037 105.362 418.962 105.366C418.734 105.367 418.556 105.264 418.557 105.132C418.558 105 418.739 104.896 418.968 104.895C419.007 104.895 422.588 104.917 423.629 105.697C423.901 105.9 423.983 106.138 423.871 106.385C423.774 106.607 423.523 106.786 423.149 106.899C422.72 107.027 422.167 107.066 421.6 107.057C421.822 107.185 422.035 107.319 422.232 107.474C423.569 108.454 423.859 109.251 423.033 109.728C421.782 110.393 419.388 109.618 418.6 109.36C417.347 108.936 416.417 108.446 415.767 107.856L415.762 107.854Z" fill="#EFDCBD"/>
<path d="M429.693 128.839C429.898 128.789 430.136 128.846 430.224 128.966C430.592 129.49 432.037 130.151 433.426 130.439C434.245 130.605 434.942 130.626 435.371 130.492C435.89 130.318 436.147 130.056 436.17 129.694C436.209 128.878 434.958 127.768 433.858 127.359C433.67 127.291 433.622 127.147 433.737 127.04C433.853 126.928 434.107 126.896 434.29 126.961C436.258 127.64 438.402 128.075 438.782 127.872C438.862 127.826 438.894 127.619 438.501 127.144C437.219 125.652 434.417 124.034 431.828 123.291C431.655 123.243 431.567 123.128 431.622 123.022C431.673 122.913 431.848 122.84 432.042 122.848C433.663 122.905 436.44 122.775 436.598 121.935C436.651 121.677 436.519 121.456 436.188 121.259C435.096 120.594 432.168 120.401 430.909 120.448C430.685 120.458 430.493 120.358 430.484 120.232C430.471 120.103 430.646 119.99 430.87 119.98C432.149 119.933 435.42 120.105 436.779 120.935C437.268 121.235 437.483 121.59 437.399 121.981C437.214 122.984 435.087 123.253 433.509 123.314C435.838 124.195 438.061 125.589 439.22 126.934C439.406 127.158 439.976 127.839 439.345 128.203C439.335 128.209 439.325 128.215 439.315 128.221C438.68 128.559 437.23 128.317 435.965 127.997C436.556 128.518 436.992 129.139 436.966 129.708C436.947 130.096 436.715 130.418 436.279 130.67C436.124 130.759 435.949 130.838 435.749 130.907C435.09 131.111 434.185 131.102 433.133 130.888C431.5 130.552 429.917 129.806 429.456 129.158C429.368 129.038 429.479 128.9 429.683 128.85L429.693 128.839Z" fill="#EFDCBD"/>
<path d="M409.218 122.15C409.235 122.021 409.42 121.92 409.649 121.925C409.867 121.93 410.045 122.038 410.029 122.167C409.928 123.259 410.909 124.496 412.707 124.679C413.354 124.717 413.897 124.609 414.233 124.38C414.594 124.132 414.687 123.764 414.488 123.366C414.439 123.263 414.515 123.156 414.67 123.095C414.834 123.04 415.038 123.054 415.167 123.128C416.561 123.933 418.077 124.501 418.525 124.396C418.755 124.332 418.815 124.258 418.836 124.206C418.999 123.826 418.047 123.103 417.643 122.794L417.534 122.709C417.396 122.606 417.427 122.462 417.617 122.381C417.792 122.303 418.051 122.325 418.184 122.425L418.292 122.51C418.85 122.936 419.886 123.725 419.625 124.321C419.585 124.418 419.494 124.539 419.299 124.652C419.188 124.716 419.038 124.779 418.849 124.832C417.921 125.048 416.401 124.407 415.397 123.902C415.359 124.198 415.172 124.466 414.856 124.683C414.33 125.038 413.542 125.201 412.583 125.145C410.238 124.906 409.1 123.423 409.218 122.15Z" fill="#EFDCBD"/>
<path d="M407.552 113.541C407.466 113.705 407.32 113.846 407.124 113.959C406.929 114.072 406.68 114.159 406.386 114.214C405.937 114.302 405.455 114.272 404.974 114.122C403.849 113.778 402.879 112.826 402.636 112.298C402.578 112.172 402.704 112.042 402.923 112.007C403.142 111.972 403.365 112.043 403.418 112.172C403.598 112.553 404.419 113.42 405.366 113.707C405.649 113.795 405.902 113.814 406.142 113.767C406.481 113.697 406.686 113.584 406.777 113.406C407.072 112.836 406.178 111.794 405.591 111.374C405.453 111.277 405.479 111.136 405.659 111.044C405.834 110.96 406.088 110.979 406.231 111.079C406.823 111.507 407.974 112.721 407.552 113.535L407.552 113.541Z" fill="#EFDCBD"/>
<path d="M402.034 111.39C402.034 111.39 401.999 111.41 401.984 111.419C401.564 111.662 400.966 111.744 400.32 111.637C398.608 111.313 397.866 109.07 397.875 108.272C397.881 108.143 398.062 108.039 398.286 108.035C398.509 108.037 398.687 108.14 398.691 108.269C398.682 109.125 399.492 110.986 400.564 111.188C400.927 111.247 401.23 111.209 401.436 111.073C401.756 110.871 401.835 110.5 401.62 110.168C401.541 110.048 401.647 109.912 401.857 109.866C402.066 109.819 402.299 109.878 402.378 109.999C402.706 110.494 402.565 111.055 402.034 111.39Z" fill="#EFDCBD"/>
<path d="M448.479 129.442C448.703 129.421 448.906 129.51 448.945 129.636C449.198 130.603 451.44 133.383 453.606 133.183C453.9 133.15 454.08 133.063 454.191 132.908C454.419 132.565 454.197 131.974 453.828 131.577C453.724 131.482 453.636 131.402 453.562 131.336C453.444 131.233 453.475 131.09 453.655 131.014C453.835 130.939 454.078 130.958 454.217 131.055C454.315 131.124 454.414 131.215 454.512 131.313C454.621 131.41 454.729 131.519 454.862 131.636C455.728 132.454 457.535 134.162 458.576 134.052C459.084 133.987 459.22 133.828 459.276 133.716C459.713 132.859 457.263 130.803 456.408 130.309C456.25 130.218 456.252 130.069 456.412 129.976C456.572 129.884 456.831 129.883 456.989 129.974C457.651 130.356 460.66 132.666 460.055 133.843C459.989 133.966 459.874 134.108 459.658 134.232C459.443 134.356 459.153 134.455 458.73 134.511C457.545 134.636 456.335 133.822 455.098 132.732C455.082 132.85 455.041 132.965 454.965 133.071C454.758 133.385 454.343 133.585 453.755 133.645C450.882 133.911 448.454 130.792 448.163 129.71C448.129 129.581 448.28 129.46 448.504 129.439L448.479 129.442Z" fill="#FFF3DB"/>
<path d="M423.391 137.483L423.338 137.388C423.264 137.265 423.385 137.133 423.599 137.089C423.809 137.048 424.042 137.113 424.11 137.233L424.164 137.328C424.813 138.477 426.174 140.87 428.36 141.155C428.668 141.188 429.061 141.201 429.211 141.086C429.497 140.864 429.197 140.135 428.514 139.394C428.405 139.28 428.487 139.136 428.681 139.075C428.881 139.011 429.124 139.053 429.232 139.168C429.572 139.531 430.622 140.774 429.865 141.359C429.83 141.385 429.79 141.414 429.75 141.437C429.414 141.631 428.891 141.693 428.181 141.612C425.543 141.269 424.084 138.71 423.391 137.477L423.391 137.483Z" fill="#EFDCBD"/>
<path d="M430.973 138.299C431.167 138.233 431.416 138.266 431.529 138.378C433.345 140.137 435.203 141.285 436.055 141.164C436.473 141.105 436.777 140.645 436.889 139.895C436.911 139.768 437.106 139.667 437.334 139.678C437.558 139.685 437.726 139.8 437.7 139.929C437.587 140.662 437.313 141.151 436.858 141.414C436.678 141.518 436.473 141.585 436.234 141.62C434.41 141.874 431.844 139.606 430.825 138.619C430.712 138.507 430.773 138.363 430.968 138.297L430.973 138.299Z" fill="#EFDCBD"/>
<path d="M433.177 102.348C436.581 103.533 441.929 102.055 445.116 99.0449C448.302 96.0351 448.121 92.6298 444.716 91.4447C441.312 90.2596 435.964 91.7379 432.777 94.7477C429.591 97.7575 429.772 101.163 433.177 102.348Z" fill="#593A42"/>
<path d="M438.156 92.3101C439.829 91.721 442.133 91.6293 443.787 92.2494C444.699 92.5907 443.651 93.3613 442.749 93.0257C441.768 92.6617 440.136 92.7423 439.157 93.0905C438.233 93.4183 437.217 92.6467 438.151 92.313L438.156 92.3101Z" fill="#936170"/>
<path d="M444.99 92.7818C445.566 92.9291 445.986 93.1889 446.186 93.5356C446.528 94.126 444.952 94.4936 444.61 93.8975C444.547 93.7857 444.507 93.7284 444.324 93.6803C443.332 93.4254 444.003 92.5241 444.99 92.7818Z" fill="#936170"/>
<path d="M425.049 97.7712C425.983 98.3105 427.25 98.4466 427.886 98.0796C428.522 97.7126 428.281 96.9783 427.352 96.4417C426.423 95.9052 425.146 95.7634 424.51 96.1305C423.874 96.4975 424.115 97.2318 425.049 97.7712Z" fill="#593A42"/>
<path d="M417.681 102.025C418.615 102.565 419.882 102.701 420.518 102.334C421.153 101.967 420.913 101.232 419.983 100.696C419.054 100.159 417.777 100.018 417.142 100.385C416.506 100.752 416.747 101.486 417.681 102.025Z" fill="#593A42"/>
</g>
</g>
<defs>
<clipPath id="clip0_57_2">
<rect width="720" height="465" fill="white" transform="translate(511)"/>
</clipPath>
<clipPath id="clip1_57_2">
<rect width="410.76" height="208.589" rx="32.2116" transform="matrix(0.866025 -0.5 0.866025 0.5 663.48 288.641)" fill="white"/>
</clipPath>
<clipPath id="clip2_57_2">
<rect width="763" height="217" fill="white" transform="translate(97 40)"/>
</clipPath>
<clipPath id="clip3_57_2">
<rect width="410.76" height="208.589" rx="32.2116" transform="matrix(0.866025 -0.5 0.866025 0.5 249.48 51.6412)" fill="white"/>
</clipPath>
</defs>
</svg>
