<svg width="320" height="310" viewBox="0 0 320 310" fill="none" xmlns="http://www.w3.org/2000/svg">
<rect y="13" width="320" height="297" rx="10" fill="#0D3B66"/>
<g clip-path="url(#clip0_57_2)">
<path d="M252.48 12.1453C249.331 12.1453 246.796 13.6086 241.727 16.5351L136.324 77.3899C136.222 77.4487 136.121 77.5068 136.021 77.5645L134.768 73.8049L129.491 72.0977L128.715 73.3393V83.4275L128.729 83.4188C128.723 83.4782 128.72 83.5379 128.72 83.598C128.72 85.4163 131.255 86.8796 136.324 89.8061L208.512 131.484C213.581 134.411 216.116 135.874 219.265 135.874C222.414 135.874 224.949 134.411 230.018 131.484L335.421 70.6293C340.425 67.7404 342.959 66.2774 343.023 64.4911L343.05 64.4928V54.2494L338.86 55.491L333.935 57.3547L263.233 16.5351C258.164 13.6086 255.63 12.1453 252.48 12.1453Z" fill="#E44449"/>
<rect width="108.188" height="146.542" rx="6.20811" transform="matrix(0.866025 0.5 -0.866026 0.5 252.48 2.86102e-05)" fill="#F15156"/>
<g clip-path="url(#clip1_57_2)">
<path d="M200.597 84.3058C196.88 82.4472 192.774 79.3015 193.284 78.9227C193.769 78.5656 199.242 79.204 201.648 79.5057C200.796 80.2768 200.574 81.2365 200.444 82.1253C200.351 82.8621 200.389 83.5942 200.595 84.3049L200.597 84.3058Z" fill="#FA9700"/>
<path d="M200.445 82.1263C200.575 81.2375 200.796 80.2769 201.65 79.5067C202.338 79.593 202.777 79.6512 202.777 79.6512L202.894 85.288C202.18 85.0481 201.397 84.7065 200.598 84.3067C200.393 83.5951 200.353 82.8639 200.446 82.1271L200.445 82.1263Z" fill="#F27006"/>
<path d="M213.347 76.9442C214.039 77.4058 214.631 77.8578 215.047 78.2697L205.283 78.2024C205.283 78.2024 205.183 77.9487 205.033 77.5516C206.369 77.0594 208.03 76.9321 209.57 76.8559C210.847 76.8023 212.115 76.8242 213.346 76.9434L213.347 76.9442Z" fill="#F27006"/>
<path d="M204.023 72.7225C204.679 72.4278 210.126 74.7973 213.347 76.9442C212.116 76.825 210.848 76.803 209.572 76.8567C208.031 76.9328 206.367 77.0601 205.034 77.5523C204.513 76.1619 203.405 73.002 204.025 72.7233L204.023 72.7225Z" fill="#FA9700"/>
<path d="M227.632 89.9605C226.379 91.9958 223.047 93.1835 219.719 94.0674L213.004 89.6942L221.786 83.8664C223.171 84.1013 224.567 84.3577 225.965 84.6315C227.703 86.2317 228.751 88.1 227.631 89.9613L227.632 89.9605Z" fill="#F27006"/>
<path d="M227.632 89.9604C228.751 88.1 227.703 86.2316 225.966 84.6307C242.517 87.8696 259.321 93.4862 259.321 93.4862L237.856 105.879L219.72 94.0682C223.049 93.1843 226.379 91.9974 227.634 89.9613L227.632 89.9604Z" fill="#FA9700"/>
<path d="M193.248 79.0623C195.759 79.0332 198.037 80.2047 199.547 81.364C200.828 82.3738 201.286 83.4921 201.308 84.6494C197.713 82.9971 193.43 79.8404 193.247 79.0632L193.248 79.0623Z" fill="#FEB8AC"/>
<path d="M204.265 72.7016C204.215 74.1513 206.243 75.4673 208.252 76.3383C210.001 77.0775 211.938 77.3419 213.943 77.3545C211.081 75.2795 205.613 72.8062 204.267 72.7007L204.265 72.7016Z" fill="#FEB8AC"/>
<path d="M225.273 91.1905C230.616 88.1058 222.438 82.2294 218.423 79.4503C214.407 76.6721 207.416 76.3672 203.508 78.6239C199.599 80.8806 200.127 84.9168 204.939 87.2355C209.751 89.5542 219.931 94.2751 225.273 91.1905Z" fill="#FFF3DB"/>
<path d="M204.429 78.1646C208.439 76.4281 214.704 76.8785 218.421 79.4502C220.426 80.8369 223.468 82.9976 225.346 85.1967C220.616 83.5618 215.633 84.2624 213.189 83.1771C210.796 82.1148 206.332 79.359 204.427 78.1638L204.429 78.1646Z" fill="#FA9700"/>
<path d="M202.711 79.1565C204.779 80.2573 209.554 82.8335 211.394 84.2149C213.274 85.6261 212.06 88.5031 214.892 91.2341C211.083 90.1497 207.342 88.3924 204.939 87.2356C200.483 85.0891 199.704 81.473 202.712 79.1573L202.711 79.1565Z" fill="#FA9700"/>
<path d="M210.729 86.2389C210.01 86.6541 208.673 86.5303 207.681 85.9577C207.554 85.8843 207.555 85.7648 207.684 85.6904C207.813 85.616 208.02 85.6153 208.147 85.6887C208.856 86.0979 209.828 86.228 210.271 85.9724C210.713 85.7167 210.487 85.1563 209.778 84.7471C209.651 84.6737 209.652 84.5541 209.781 84.4798C209.909 84.4054 210.117 84.4046 210.244 84.4781C211.235 85.0506 211.448 85.8236 210.731 86.238L210.729 86.2389Z" fill="#593A42"/>
<path d="M217.264 82.4656C216.547 82.8801 215.208 82.7571 214.216 82.1845C214.089 82.1111 214.09 81.9915 214.219 81.9172C214.348 81.8428 214.555 81.8421 214.682 81.9155C215.391 82.3247 216.363 82.4548 216.806 82.1992C217.249 81.9435 217.022 81.3831 216.313 80.9739C216.186 80.9005 216.187 80.7809 216.316 80.7065C216.445 80.6322 216.652 80.6314 216.779 80.7049C217.771 81.2774 217.984 82.0504 217.266 82.4648L217.264 82.4656Z" fill="#593A42"/>
<path d="M224.587 87.9053C225.673 88.5323 225.432 89.688 224.052 90.485C222.671 91.2821 220.668 91.4223 219.582 90.7953C218.496 90.1682 218.736 89.0134 220.119 88.2146C221.502 87.4159 223.501 87.2782 224.587 87.9053Z" fill="#593A42"/>
<path d="M219.6 88.907C219.204 89.2904 219.176 89.7538 219.487 90.1536C219.704 90.4343 220.425 90.1925 220.21 89.9144C220.017 89.6677 220.081 89.3719 220.319 89.1402C220.592 88.8735 219.876 88.6404 219.601 88.9062L219.6 88.907Z" fill="#936170"/>
<path d="M220.009 90.268C219.826 90.3293 219.723 90.4874 219.849 90.5949C219.911 90.6478 219.967 90.7015 220.029 90.7544C220.156 90.8611 220.383 90.9117 220.594 90.8429C220.775 90.7824 220.881 90.6227 220.753 90.5169C220.69 90.4639 220.633 90.4094 220.572 90.3573C220.445 90.2506 220.218 90.2 220.007 90.2688L220.009 90.268Z" fill="#936170"/>
<path d="M232.643 99.1967C230.481 97.3466 222.178 89.5503 232.05 90.4425C236.412 90.8251 240.534 92.2024 244.138 93.4827C247.232 94.569 250.209 95.8068 253.107 97.0739L239.991 104.647C237.413 102.886 234.899 101.097 232.643 99.1967Z" fill="#FFF3DB"/>
<path d="M279.364 41.9579C279.508 41.9457 281.505 42.5777 282.726 42.9701L281.21 44.6917L279.859 43.9112C279.859 43.9112 279.157 41.9752 279.364 41.9579Z" fill="#FEB8AC"/>
<path d="M276.248 45.2437C275.958 44.8006 276.651 41.3875 277.899 40.8699C279.147 40.3522 283.46 42.1389 283.46 42.1389L282.729 42.9702C281.507 42.5769 279.511 41.9458 279.367 41.9579C279.16 41.9753 279.862 43.9113 279.862 43.9113C279.862 43.9113 280.207 46.2911 280.028 46.4968C279.848 46.7025 276.541 45.6868 276.251 45.2437L276.248 45.2437Z" fill="#352328"/>
<path d="M282.972 36.583C282.706 36.5333 280.475 37.3791 280.475 37.3791C280.475 37.3791 279.435 37.8097 279.229 37.7589C279.022 37.7082 279.189 36.4307 279.986 35.9853C282.52 35.4597 289.391 36.3371 295.805 42.2041L294.266 42.0976C288.353 37.3288 282.973 36.5821 282.973 36.5821L282.972 36.583Z" fill="#352328"/>
<path d="M280.477 37.3782C280.477 37.3782 282.706 36.5316 282.973 36.5821C282.973 36.5821 288.353 37.3288 294.266 42.0976L285.048 41.4579L280.477 37.3782Z" fill="#FEB8AC"/>
<path d="M278.376 52.2388C276.875 50.8827 281.209 47.3177 281.209 47.3177C278.573 41.979 285.503 39.7171 292.481 40.81C299.459 41.9028 324.825 55.6676 324.825 55.6676L309.266 64.6509L290.953 50.4353C283.485 54.612 279.876 53.5949 278.376 52.2388Z" fill="#593A42"/>
<path d="M317.963 59.6294L309.266 64.6508L290.954 50.4352C290.954 50.4352 292.198 49.8703 293.58 48.9487C293.58 48.9487 311.686 56.9142 317.963 59.6294Z" fill="#352328"/>
<path d="M285.297 45.1409C286.64 45.9164 288.609 46.0371 289.693 45.4113C290.776 44.7855 290.567 43.6489 289.224 42.8734C287.881 42.0979 285.912 41.9772 284.828 42.603C283.744 43.2288 283.953 44.3654 285.297 45.1409Z" fill="#352328"/>
<path d="M286.458 44.4707C286.879 44.7141 287.455 44.7776 287.743 44.6113C288.031 44.445 287.922 44.1133 287.499 43.8691C287.077 43.6249 286.502 43.5623 286.214 43.7285C285.926 43.8948 286.035 44.2265 286.458 44.4707Z" fill="#191113"/>
<path d="M282.983 46.3166C283.405 46.56 283.979 46.6226 284.267 46.4564C284.555 46.2901 284.447 45.9584 284.025 45.715C283.604 45.4717 283.028 45.4082 282.74 45.5744C282.452 45.7407 282.56 46.0724 282.983 46.3166Z" fill="#191113"/>
<path d="M277.877 52.2331C278.729 52.7248 280.3 52.6161 281.384 51.9903C282.468 51.3645 282.656 50.4572 281.804 49.9655C280.953 49.4738 279.381 49.5825 278.297 50.2083C277.214 50.8341 277.024 51.7405 277.877 52.2331Z" fill="#191113"/>
<path d="M279.148 50.0258C279.669 49.847 280.299 49.8331 280.844 49.9739C281.225 50.0722 280.897 50.3988 280.52 50.3014C280.184 50.2146 279.781 50.2427 279.468 50.3509C279.107 50.4751 278.787 50.15 279.151 50.0258L279.148 50.0258Z" fill="#593A42"/>
<path d="M280.998 50.2117C281.081 50.1292 281.297 50.0819 281.442 50.1403C281.514 50.1683 281.588 50.1946 281.66 50.2225C281.804 50.2809 281.874 50.3828 281.778 50.4778C281.695 50.5603 281.479 50.6076 281.334 50.5492C281.264 50.5204 281.188 50.4949 281.116 50.4669C280.972 50.4085 280.902 50.3067 280.997 50.2108L280.998 50.2117Z" fill="#593A42"/>
<path d="M288.857 48.5766C288.857 48.5766 292.638 47.7998 293.511 49.0262C294.385 50.2526 288.123 50.3302 288.123 50.3302C288.123 50.3302 288.836 49.7041 288.859 48.5774L288.857 48.5766Z" fill="#FEB8AC"/>
<path d="M291.718 49.4429C290.726 49.4283 289.687 49.5035 288.733 49.6763C288.533 49.7127 288.453 49.5312 288.653 49.4948C289.627 49.3185 290.705 49.2407 291.72 49.2553C291.928 49.2587 291.928 49.4455 291.718 49.4429Z" fill="#FC8686"/>
<path d="M288.465 47.4946C289.135 48.2443 289.16 49.0321 288.682 49.8292C288.032 50.9158 286.655 51.5344 284.954 52.0578C284.769 52.115 284.608 51.952 284.794 51.8957C286.309 51.4302 287.5 50.9178 288.223 49.9936C288.839 49.2076 288.862 48.3508 288.181 47.5894C288.085 47.4827 288.368 47.3887 288.463 47.4954L288.465 47.4946Z" fill="#352328"/>
<path d="M264.504 60.1333C264.528 60.5616 264.577 60.9823 264.685 61.3937C260.872 58.7177 259.727 56.3043 260.272 55.9885C260.95 55.5966 264.119 56.6561 265.987 57.3383C264.871 58.1809 264.459 58.996 264.506 60.1325L264.504 60.1333Z" fill="#FA9700"/>
<path d="M264.504 60.1333C264.458 58.9969 264.871 58.1826 265.986 57.3392C266.803 57.6376 267.373 57.8646 267.373 57.8646L265.972 62.2425C265.512 61.9586 265.084 61.6746 264.683 61.3946C264.577 60.9823 264.527 60.5624 264.503 60.1341L264.504 60.1333Z" fill="#FF740C"/>
<path d="M278.591 53.7887C278.946 53.9635 279.303 54.1465 279.661 54.3394L272.078 55.1483C272.078 55.1483 271.722 54.8507 271.243 54.4158C272.359 54.0738 273.75 53.9077 274.864 53.7758C276.085 53.6518 277.367 53.6604 278.591 53.7904L278.591 53.7887Z" fill="#FF740C"/>
<path d="M268.83 51.0474C269.39 50.724 273.801 51.4344 278.592 53.7897C277.369 53.6596 276.086 53.651 274.865 53.775C273.752 53.9078 272.36 54.0731 271.245 54.4151C270.067 53.3475 268.137 51.4476 268.831 51.0465L268.83 51.0474Z" fill="#FA9700"/>
<path d="M261.412 56.6485C261.587 56.5026 266.438 58.1403 266.498 58.4573C266.558 58.7742 266.071 61.0732 265.691 60.9874C265.31 60.9008 261.065 56.9362 261.413 56.6477L261.412 56.6485Z" fill="#FEB8AC"/>
<path d="M269.972 51.7064C269.719 51.8078 272.555 54.6086 273.104 54.6431C273.653 54.6777 277.635 54.3966 277.487 54.1772C277.337 53.9569 270.47 51.5062 269.97 51.7073L269.972 51.7064Z" fill="#FEB8AC"/>
<path d="M290.501 75.4847C290.501 75.4847 272.919 68.7394 267.857 64.4199C262.795 60.1005 266.887 56.9622 268.702 55.9145C270.517 54.8668 275.952 52.5041 283.432 55.4274C290.914 58.3499 302.597 68.5008 302.597 68.5008L290.499 75.4856L290.501 75.4847Z" fill="#FFF3DB"/>
<path d="M268.982 55.7592C271.032 54.6566 276.301 52.6424 283.432 55.4275C290.914 58.35 302.597 68.5009 302.597 68.5009L302.238 68.7081C295.436 61.4842 282.818 54.7606 268.982 55.7592Z" fill="#FFF9EE"/>
<path d="M275.386 59.0368C272.73 58.4205 269.993 56.2204 269.454 56.5312C268.916 56.8421 272.728 58.4213 273.794 59.9559C274.621 61.1417 269.057 62.4746 266.492 63.0186C263.687 59.4273 267.088 56.8462 268.7 55.9155C270.313 54.9847 274.698 53.0551 280.831 54.5944C280.001 55.9399 277.55 59.5395 275.386 59.0368Z" fill="#FA9700"/>
<path d="M272.55 67.4457C274.728 68.1484 277.121 68.6544 279.621 69.0297C284.63 69.786 289.756 70.209 294.26 71.7401C294.73 71.8962 295.343 72.0932 295.972 72.3258L290.5 75.4849C290.5 75.4849 279.659 71.3243 272.55 67.4457Z" fill="#FA9700"/>
<path d="M291.416 62.2195C290.766 60.7765 289.889 59.394 288.673 58.1373C295.389 62.2407 302.597 68.5009 302.597 68.5009L297.125 71.6599C296.724 71.2961 296.381 70.9428 296.111 70.6715C293.459 68.0726 292.725 65.1122 291.416 62.2195Z" fill="#FA9700"/>
<path d="M268.981 55.7584C270.773 54.7946 275.026 53.1361 280.831 54.5944C280.558 55.0396 280.104 55.7303 279.544 56.438C276.162 55.7654 272.614 55.4961 268.98 55.7593L268.981 55.7584Z" fill="#FF9E10"/>
<path d="M302.597 68.5009L302.238 68.7081C299.233 65.5177 295.095 62.4253 290.219 60.0529C289.775 59.3903 289.266 58.7487 288.674 58.1382C295.391 62.2416 302.598 68.5017 302.598 68.5017L302.597 68.5009Z" fill="#FF9E10"/>
<path d="M274.94 57.8553C275.028 57.8044 275.029 57.723 274.942 57.6727C274.456 57.3922 274.302 57.0075 274.605 56.8329C274.907 56.6583 275.573 56.7472 276.059 57.0277C276.146 57.078 276.287 57.0775 276.376 57.0265C276.464 56.9755 276.465 56.8942 276.378 56.8438C275.699 56.452 274.782 56.3673 274.29 56.6514C273.798 56.9354 273.945 57.4646 274.624 57.8565C274.711 57.9068 274.852 57.9063 274.94 57.8553Z" fill="#593A42"/>
<path d="M270.655 60.3293C270.743 60.2783 270.744 60.1969 270.657 60.1466C270.171 59.8661 270.017 59.4814 270.32 59.3068C270.622 59.1322 271.288 59.2211 271.774 59.5016C271.861 59.5519 272.002 59.5514 272.091 59.5004C272.179 59.4495 272.18 59.3681 272.093 59.3178C271.414 58.9259 270.497 58.8413 270.005 59.1253C269.513 59.4094 269.66 59.9385 270.339 60.3304C270.426 60.3807 270.567 60.3802 270.655 60.3293Z" fill="#593A42"/>
<path d="M279.532 58.8507C280.058 59.9679 279.483 60.9862 277.993 61.767C276.541 62.5295 274.194 62.8054 272.571 62.0923C272.408 62.0199 272.568 61.8565 272.734 61.929C274.367 62.6462 276.524 62.2871 277.941 61.5431C279.27 60.845 279.678 59.8738 279.218 58.8983C279.163 58.7814 279.479 58.733 279.534 58.8498L279.532 58.8507Z" fill="#593A42"/>
<path d="M278.05 61.5824C277.45 61.2392 276.919 60.8526 276.223 60.5679C276.054 60.4988 276.216 60.3346 276.386 60.4046C277.108 60.6992 277.657 61.0932 278.282 61.4487C278.429 61.5337 278.199 61.6666 278.05 61.5824Z" fill="#593A42"/>
<path d="M273.384 61.0491C274.235 61.5408 275.807 61.4321 276.891 60.8063C277.975 60.1806 278.164 59.2741 277.311 58.7816C276.458 58.289 274.888 58.3985 273.804 59.0243C272.72 59.6501 272.531 60.5566 273.384 61.0491Z" fill="#593A42"/>
<path d="M274.744 58.7883C275.265 58.6096 275.895 58.5956 276.44 58.7364C276.822 58.8347 276.493 59.1613 276.116 59.0639C275.78 58.9771 275.377 59.0052 275.064 59.1134C274.702 59.2384 274.383 58.9125 274.747 58.7883L274.744 58.7883Z" fill="#936170"/>
<path d="M276.596 58.9732C276.679 58.8907 276.895 58.8434 277.04 58.9019C277.111 58.9298 277.187 58.9553 277.257 58.9841C277.402 59.0425 277.471 59.1444 277.377 59.2402C277.295 59.3235 277.078 59.37 276.933 59.3115C276.863 59.2827 276.789 59.2581 276.716 59.2293C276.571 59.1725 276.502 59.069 276.598 58.974L276.596 58.9732Z" fill="#936170"/>
<path d="M241.274 55.9312C242.304 55.5231 238.121 52.2025 239.64 50.6644C241.158 49.1263 243.966 46.6403 241.434 46.716C238.904 46.7908 233.093 49.5334 233.68 51.3993C234.269 53.2652 238.86 56.8898 241.276 55.932L241.274 55.9312Z" fill="#352328"/>
<path d="M233.677 51.3978C233.089 49.5328 238.902 46.7901 241.431 46.7145C242.05 46.6956 242.347 46.8324 242.425 47.0679C242.027 47.281 241.654 47.5115 241.306 47.7685C238.863 49.4561 236.827 52.7653 237.482 55.1507C235.674 54.1203 234.014 52.4701 233.677 51.3978Z" fill="#593A42"/>
<path d="M245.911 63.7817C247.952 63.6787 250.348 63.0299 250.348 63.0299C255.488 66.2117 263.303 69.1396 270.547 71.4453C253.169 70.255 245.912 63.7825 245.912 63.7825L245.911 63.7817Z" fill="#EFDCBD"/>
<path d="M236.313 64.2625C232.763 61.1886 229.934 57.761 236.601 55.1132C243.268 52.4654 248.366 55.9752 248.199 56.0713C248.033 56.1674 260.324 56.409 259.042 59.2987C257.761 62.1884 250.346 63.0291 250.346 63.0291C250.346 63.0291 247.951 63.6779 245.909 63.7808C245.909 63.7808 253.166 70.2533 270.544 71.4436C280.17 74.506 288.788 76.4705 288.788 76.4705L269.24 87.7564C255.813 80.5808 239.972 67.4314 236.313 64.2608L236.313 64.2625Z" fill="#FFF3DB"/>
<path d="M243.812 62.2692C243.812 62.2692 240.531 63.3222 241.447 64.4414C242.365 65.5613 246.36 63.0635 246.36 63.0635C246.36 63.0635 245.168 62.9633 243.812 62.2692Z" fill="#FEB8AC"/>
<path d="M258.053 56.6904C258.976 57.2234 258.771 58.2046 257.596 58.883C256.421 59.5614 254.722 59.6797 253.799 59.1468C252.876 58.6138 253.08 57.6326 254.255 56.9541C255.431 56.2757 257.132 56.1583 258.053 56.6904Z" fill="#593A42"/>
<path d="M244.81 59.1339C245.421 58.7814 245.238 58.1245 244.396 57.6386C244.289 57.5767 244.112 57.5765 244.002 57.64C243.892 57.7035 243.891 57.8048 244 57.8675C244.603 58.2156 244.795 58.6923 244.418 58.9096C244.042 59.1268 243.216 59.0161 242.613 58.6679C242.506 58.606 242.329 58.6058 242.219 58.6693C242.109 58.7328 242.108 58.8341 242.217 58.8968C243.059 59.3828 244.196 59.4882 244.807 59.1356L244.81 59.1339Z" fill="#593A42"/>
<path d="M248.405 57.0585C249.015 56.7059 248.833 56.0491 247.991 55.5631C247.884 55.5012 247.707 55.5011 247.597 55.5646C247.487 55.6281 247.486 55.7293 247.594 55.792C248.197 56.1402 248.389 56.6169 248.013 56.8341C247.637 57.0513 246.811 56.9406 246.208 56.5925C246.101 56.5306 245.924 56.5304 245.814 56.5939C245.704 56.6574 245.703 56.7587 245.812 56.8214C246.653 57.3073 247.791 57.4128 248.402 57.0602L248.405 57.0585Z" fill="#593A42"/>
<path d="M242.843 63.8518C243.466 63.4277 244.224 63.0497 245.042 62.7537C245.21 62.6933 245.358 62.8455 245.19 62.9059C244.393 63.1927 243.664 63.5607 243.056 63.9747C242.928 64.0615 242.717 63.9377 242.843 63.8518Z" fill="#FC8686"/>
<path d="M253.815 57.5419C253.479 57.8677 253.455 58.2613 253.717 58.6016C253.903 58.8392 254.515 58.6344 254.332 58.3984C254.167 58.1882 254.222 57.9372 254.425 57.7406C254.658 57.5139 254.047 57.3152 253.815 57.5419Z" fill="#936170"/>
<path d="M254.163 58.6987C254.007 58.7508 253.919 58.8856 254.028 58.9765C254.082 59.0212 254.129 59.0683 254.182 59.1121C254.288 59.2022 254.482 59.2455 254.661 59.1868C254.815 59.1355 254.905 58.9999 254.796 58.909C254.742 58.8643 254.695 58.8172 254.643 58.7734C254.536 58.6833 254.342 58.64 254.165 58.6979L254.163 58.6987Z" fill="#936170"/>
<path d="M235.914 59.1647C236.489 58.5259 230.369 56.4261 230.449 54.6658C230.525 52.9054 230.643 50.3097 228.463 51.0698C226.284 51.83 223.396 55.8222 225.453 57.2909C227.511 58.7595 234.565 60.6649 235.915 59.1656L235.914 59.1647Z" fill="#352328"/>
<path d="M264.948 74.1696C262.076 72.9173 262.115 70.781 263.596 69.0795C265.902 69.9229 268.253 70.7155 270.546 71.446C272.65 72.1158 274.708 72.7326 276.636 73.2893C273.981 75.0184 267.906 75.4947 264.948 74.1713L264.948 74.1696Z" fill="#593A42"/>
<path d="M241.874 66.4836C243.351 67.8564 244.366 69.2309 243.826 70.4317C240.276 67.6269 237.573 65.3544 236.314 64.2631C235.68 63.7133 235.068 63.1527 234.531 62.5868C238.13 62.9788 239.588 64.2686 241.874 66.4836Z" fill="#593A42"/>
<path d="M277.532 82.9722L269.243 87.758C266.345 86.2086 263.332 84.3806 260.355 82.4346C261.543 81.9305 262.973 81.4977 264.511 81.1011C269.653 79.8137 274.773 80.4053 277.535 82.9722L277.532 82.9722Z" fill="#593A42"/>
<path d="M243.058 61.3844C243.642 62.2698 244.891 62.7451 246.431 62.9827C247.769 63.1887 249.055 62.9566 250.313 62.6838C250.496 62.6441 250.57 62.8141 250.389 62.8529C248.934 63.1695 247.612 63.3471 246.092 63.1127C244.543 62.8734 243.339 62.2983 242.766 61.4311C242.696 61.326 242.992 61.2809 243.06 61.3852L243.058 61.3844Z" fill="#593A42"/>
<path d="M263.596 69.0795L263.599 69.0812C264.15 69.2826 264.702 69.4806 265.256 69.6754C265.359 69.7115 265.463 69.7477 265.566 69.7838C265.998 69.935 266.431 70.0846 266.862 70.2316C267.02 70.2858 267.177 70.3384 267.334 70.3918C267.726 70.5248 268.12 70.6554 268.513 70.7851C268.665 70.8361 268.818 70.8861 268.97 70.9354C269.497 71.1078 270.023 71.2794 270.545 71.4452C267.678 71.249 265.087 70.9081 262.757 70.4765C262.922 69.9969 263.207 69.5235 263.593 69.0795L263.596 69.0795Z" fill="#352328"/>
<path d="M225.452 57.29C223.394 55.8214 226.284 51.8299 228.462 51.069C229.088 50.8508 229.524 50.9099 229.826 51.1462C229.174 52.5259 228.794 53.9544 229.059 55.3624C229.531 57.6919 232.229 58.7365 235.5 59.4501C233.498 60.3699 227.35 58.6447 225.452 57.29Z" fill="#593A42"/>
<path d="M273.359 85.3821C273.359 85.3821 258.73 75.8181 246.754 74.1507C234.778 72.4849 232.135 77.1538 233.138 80.1423C233.138 80.1423 232.069 83.0528 229.091 84.6884C229.091 84.6884 235.729 86.9722 239.187 82.258C239.187 82.258 244.546 79.5884 251.401 82.4268C258.255 85.2661 258.756 93.8131 258.756 93.8131L273.359 85.3821Z" fill="#FF740C"/>
<path d="M233.082 80.2835C237.709 79.7403 239.187 82.258 239.187 82.258C235.731 86.973 229.091 84.6883 229.091 84.6883C231.682 83.2667 232.826 80.8814 233.08 80.2827L233.082 80.2835Z" fill="#FFF3DB"/>
<path d="M256.377 81.62C263.998 83.099 268.441 85.307 270.799 86.8601L258.754 93.8139C258.754 93.8139 258.255 85.2661 251.4 82.4277C244.546 79.5884 239.186 82.2589 239.186 82.2589C239.186 82.2589 243.513 79.1239 256.375 81.6208L256.377 81.62Z" fill="#ED4714"/>
<path d="M228.426 85.3874C229.648 85.4095 230.669 85.0296 230.706 84.538C230.743 84.0481 229.781 83.6331 228.559 83.611C227.337 83.5889 226.317 83.9695 226.28 84.4595C226.243 84.9495 227.205 85.3644 228.427 85.3865L228.426 85.3874Z" fill="#593A42"/>
<path d="M236.28 75.9406C236.037 75.6567 236.914 73.9225 237.789 73.7773C238.663 73.6322 245.001 76.1902 245.341 77.2367C245.677 78.2833 238.786 76.4952 238.159 76.4576C237.531 76.4192 239.129 77.2195 238.638 77.3019C238.148 77.385 236.831 76.5828 236.28 75.9406Z" fill="#593A42"/>
<path d="M235.101 79.4676C235.505 79.7011 236.042 79.7705 236.3 79.6218C236.558 79.4731 236.437 79.163 236.033 78.9295C235.629 78.696 235.091 78.6266 234.834 78.7753C234.576 78.924 234.695 79.2333 235.101 79.4676Z" fill="#593A42"/>
<path d="M235.789 81.2584C237.044 81.5353 238.234 82.2806 237.265 83.0513C237.104 83.1789 236.732 83.0599 236.895 82.9314C237.686 82.3017 236.697 81.7225 235.678 81.4971C235.426 81.4415 235.535 81.202 235.789 81.2584Z" fill="#593A42"/>
<path d="M227.308 83.8563C227.517 83.8215 227.72 83.7983 227.938 83.7992C228.491 83.8005 228.443 84.293 227.894 84.2917C227.752 84.2914 227.618 84.3159 227.482 84.338C226.952 84.4263 226.781 83.9446 227.309 83.8571L227.308 83.8563Z" fill="#936170"/>
<path d="M228.753 83.7548C228.921 83.7434 229.061 83.747 229.226 83.7655C229.454 83.7921 229.567 83.9544 229.503 84.0725C229.427 84.2106 229.195 84.2621 228.968 84.2363C228.953 84.2364 228.94 84.2356 228.926 84.2357C228.696 84.2514 228.472 84.1892 228.422 84.0482C228.38 83.9271 228.523 83.7705 228.753 83.7548Z" fill="#936170"/>
<path d="M216.288 97.5644C216.288 97.5644 215.019 96.6848 214.216 95.7064C214.951 95.7245 215.69 95.7052 216.417 95.637L216.886 96.957L216.287 97.5652L216.288 97.5644Z" fill="#EFDCBD"/>
<path d="M214.218 95.7057C213.976 95.4126 213.778 95.1112 213.669 94.821C213.63 94.7165 213.61 94.6095 213.602 94.4999C213.349 94.3855 213.115 94.2302 213.064 94.0619C213.02 93.9566 213.07 93.8385 213.287 93.8386C213.456 93.8388 213.577 93.9222 213.673 93.9941C213.674 93.9899 213.677 93.9866 213.676 93.9824C213.44 93.7326 213.066 93.4799 213.049 93.1894C213.051 93.064 213.166 92.9797 213.387 93.0238C213.655 93.0751 213.83 93.2729 213.967 93.4002C213.952 93.2583 213.843 92.5231 214.013 92.3639C214.168 92.2231 214.318 92.3329 214.391 92.4456C214.471 92.5632 214.486 92.6943 214.483 92.8247C215.24 92.132 216.327 91.6581 217.127 91.8611C218.773 92.2768 216.032 94.5608 216.032 94.5608L216.414 95.6354C215.687 95.7036 214.946 95.7221 214.213 95.7049L214.218 95.7057Z" fill="#FFF3DB"/>
<path d="M210.998 98.4388C210.998 98.4388 210.119 96.9401 210.803 96.8388C211.486 96.7383 211.943 97.8932 211.943 97.8932C211.943 97.8932 212.492 96.0796 213.291 96.2436C214.092 96.4084 213.439 97.6171 213.439 97.6171C213.439 97.6171 216.993 96.25 217.976 95.9758C218.96 95.7015 220.88 95.5717 220.143 96.6819L221.747 98.0542C221.747 98.0542 224.714 95.7536 226.881 96.5585C229.047 97.3626 229.419 98.4197 229.076 98.6177C228.733 98.8158 227.967 98.6708 227.967 98.6708C227.967 98.6708 229.684 99.4516 229.2 99.929C228.879 100.247 227.697 99.8532 227.697 99.8532C227.697 99.8532 229.199 101.023 228.447 101.426C228.047 101.641 226.824 101.094 226.824 101.094C226.824 101.094 227.157 102.514 226.259 102.689C225.363 102.865 222.976 102.579 222.976 102.579C222.976 102.579 227.612 103.669 228.881 104.599C230.149 105.53 229.592 105.902 228.568 105.906C228.568 105.906 231.368 107.225 232.5 108.968L221.986 115.039C221.986 115.039 212.07 101.586 210.892 100.112C210.892 100.112 207.939 98.9148 208.481 98.3724C209.015 97.8383 210.995 98.4371 210.995 98.4371L210.998 98.4388Z" fill="#FFF3DB"/>
<path d="M229.242 109.075C228.203 108.335 224.837 106.766 227.542 106.082C226.459 105.737 223.889 105.002 225.989 104.39C224.984 104.231 221.204 103.686 221.293 102.895C221.351 102.332 223.049 102.489 224.463 102.713C223.678 102.665 222.976 102.58 222.976 102.58C222.976 102.58 227.612 103.671 228.881 104.601C230.149 105.532 229.592 105.904 228.568 105.907C228.568 105.907 231.368 107.226 232.5 108.97L227.279 111.984C226.882 111.651 226.602 111.281 226.523 110.875C226.332 109.969 227.592 109.01 229.242 109.074L229.242 109.075Z" fill="#EFDCBD"/>
<path d="M216.847 92.2439C217.317 92.7444 215.635 94.4268 215.635 94.4268L216.28 97.1052C216.28 97.1052 214.34 94.7586 214.233 94.4776C214.125 94.1965 216.254 91.6176 216.844 92.2439L216.847 92.2439Z" fill="#FEB8AC"/>
<path d="M205.322 99.4309C205.45 99.3665 205.639 99.3833 205.792 99.4001C205.788 99.3977 205.787 99.3935 205.782 99.3894C205.317 99.2931 204.744 99.2479 204.4 99.0374C204.26 98.9433 204.25 98.837 204.467 98.7856C204.73 98.7216 205.09 98.8024 205.338 98.8455C205.165 98.7457 204.245 98.2393 204.192 98.0568C204.149 97.8935 204.391 97.9175 204.574 97.9733C204.769 98.0307 204.931 98.1222 205.078 98.2205C204.862 97.4176 205.149 96.6511 205.989 96.4978C207.717 96.1818 208.236 98.923 208.236 98.923L211.615 100.381L211.854 101.062C211.854 101.062 208.528 100.771 206.73 100.017C206.581 99.9543 206.444 99.8818 206.314 99.8034C205.991 99.8137 205.636 99.7876 205.404 99.6822C205.252 99.6196 205.155 99.5137 205.319 99.4309L205.322 99.4309Z" fill="#FFF3DB"/>
<path d="M206.21 96.8905C207.138 97.0839 207.777 98.9753 207.777 98.9753L211.346 100.541C211.346 100.541 207.171 99.7131 206.769 99.5444C206.366 99.3756 205.043 96.6465 206.21 96.8889L206.21 96.8905Z" fill="#FEB8AC"/>
<path d="M217.414 99.0117C217.463 99.1302 217.428 99.2383 217.312 99.3317C216.982 99.5977 216.172 99.6131 214.901 99.372C214.839 99.3598 214.807 99.3225 214.829 99.2868C214.848 99.251 214.915 99.2317 214.977 99.2439C216.427 99.5176 216.944 99.3986 217.123 99.2543C217.199 99.1934 217.22 99.1253 217.187 99.0457C217.091 98.8169 216.574 98.5614 216.235 98.4647C216.188 98.4508 216.161 98.4201 216.174 98.3894C216.186 98.3594 216.232 98.3377 216.287 98.3358C216.658 98.3278 217.042 98.3538 217.462 98.4146C217.533 98.4251 217.606 98.4356 217.681 98.447C218.058 98.5045 218.486 98.5711 218.839 98.5108C218.961 98.4896 219.045 98.4511 219.086 98.3962C219.134 98.3304 219.121 98.2441 219.044 98.1581C218.891 97.9727 218.553 97.8743 218.224 97.7783L218.153 97.757C218.107 97.7439 218.081 97.7141 218.092 97.6833C218.102 97.6542 218.144 97.6317 218.197 97.629C218.285 97.6245 218.373 97.62 218.462 97.6164C218.875 97.5975 219.302 97.5785 219.66 97.4792C219.83 97.4288 219.923 97.372 219.932 97.3122C219.946 97.2233 219.786 97.101 219.499 96.9783C219.447 96.9569 219.436 96.9138 219.475 96.8829C219.511 96.8521 219.588 96.846 219.641 96.8682C219.897 96.976 220.196 97.1435 220.169 97.3221C220.152 97.4326 220.017 97.5252 219.766 97.6008C219.41 97.6993 219.014 97.7265 218.626 97.7445C218.881 97.8282 219.123 97.9328 219.259 98.095C219.367 98.2158 219.384 98.3445 219.306 98.4477C219.278 98.4852 219.239 98.5177 219.189 98.5461C219.117 98.5879 219.022 98.6198 218.908 98.6393C218.49 98.7089 218.029 98.6383 217.622 98.5767C217.549 98.5645 217.477 98.5548 217.409 98.5443C217.165 98.5086 216.935 98.4862 216.714 98.4754C217.022 98.6129 217.342 98.8127 217.423 99.01L217.414 99.0117Z" fill="#EFDCBD"/>
<path d="M217.837 101.14C217.802 101.109 217.819 101.068 217.874 101.047C217.928 101.026 218.002 101.035 218.036 101.067C218.204 101.219 218.445 101.347 218.775 101.457C219.413 101.663 219.673 101.639 219.777 101.584C219.978 101.468 219.633 101.195 219.521 101.114C219.361 100.99 219.165 100.902 218.938 100.853C218.888 100.844 218.849 100.836 218.822 100.831C218.765 100.817 218.735 100.78 218.754 100.746C218.775 100.711 218.838 100.693 218.898 100.702C218.943 100.71 218.984 100.717 219.027 100.727C219.28 100.769 219.678 100.802 219.864 100.745C219.913 100.73 219.941 100.711 219.953 100.684C219.967 100.653 219.957 100.627 219.925 100.602C219.754 100.473 219.072 100.42 218.762 100.421C218.696 100.422 218.644 100.392 218.645 100.354C218.645 100.316 218.697 100.286 218.763 100.285C218.775 100.285 219.81 100.291 220.111 100.517C220.19 100.576 220.213 100.644 220.181 100.716C220.153 100.78 220.08 100.832 219.972 100.865C219.848 100.902 219.688 100.913 219.524 100.91C219.589 100.947 219.65 100.986 219.707 101.031C220.094 101.314 220.178 101.545 219.939 101.682C219.577 101.875 218.885 101.651 218.657 101.576C218.295 101.453 218.026 101.312 217.838 101.141L217.837 101.14Z" fill="#EFDCBD"/>
<path d="M221.864 107.207C221.923 107.193 221.992 107.209 222.018 107.244C222.124 107.395 222.542 107.586 222.943 107.67C223.18 107.718 223.381 107.724 223.506 107.685C223.656 107.635 223.73 107.559 223.737 107.454C223.748 107.218 223.386 106.898 223.068 106.779C223.014 106.759 223 106.718 223.033 106.687C223.067 106.655 223.14 106.645 223.193 106.664C223.762 106.861 224.382 106.986 224.492 106.928C224.515 106.914 224.524 106.854 224.411 106.717C224.04 106.286 223.23 105.818 222.481 105.603C222.431 105.589 222.406 105.556 222.422 105.525C222.437 105.494 222.487 105.473 222.543 105.475C223.012 105.492 223.815 105.454 223.86 105.211C223.876 105.137 223.838 105.073 223.742 105.016C223.426 104.824 222.58 104.768 222.216 104.781C222.151 104.784 222.095 104.755 222.093 104.719C222.089 104.681 222.14 104.649 222.204 104.646C222.574 104.632 223.52 104.682 223.912 104.922C224.054 105.009 224.116 105.112 224.092 105.225C224.038 105.515 223.423 105.592 222.967 105.61C223.64 105.865 224.283 106.268 224.618 106.657C224.672 106.721 224.837 106.918 224.655 107.023C224.652 107.025 224.649 107.027 224.646 107.028C224.462 107.126 224.043 107.056 223.677 106.964C223.848 107.114 223.974 107.294 223.967 107.458C223.961 107.57 223.894 107.664 223.768 107.736C223.723 107.762 223.673 107.785 223.615 107.805C223.424 107.864 223.163 107.861 222.859 107.799C222.387 107.702 221.929 107.487 221.796 107.299C221.77 107.265 221.802 107.225 221.861 107.21L221.864 107.207Z" fill="#EFDCBD"/>
<path d="M215.945 105.274C215.95 105.236 216.003 105.207 216.07 105.208C216.133 105.21 216.184 105.241 216.179 105.279C216.15 105.594 216.434 105.952 216.954 106.005C217.141 106.016 217.298 105.984 217.395 105.918C217.499 105.847 217.526 105.74 217.468 105.625C217.454 105.595 217.476 105.564 217.521 105.547C217.569 105.531 217.628 105.535 217.665 105.556C218.068 105.789 218.506 105.953 218.636 105.923C218.702 105.904 218.72 105.883 218.725 105.868C218.773 105.758 218.497 105.549 218.38 105.46L218.349 105.435C218.309 105.405 218.318 105.364 218.373 105.34C218.424 105.318 218.498 105.324 218.537 105.353L218.568 105.378C218.729 105.501 219.029 105.729 218.954 105.901C218.942 105.929 218.916 105.964 218.859 105.997C218.827 106.015 218.784 106.034 218.729 106.049C218.461 106.111 218.022 105.926 217.731 105.78C217.72 105.866 217.666 105.943 217.575 106.006C217.423 106.108 217.195 106.156 216.918 106.139C216.24 106.07 215.911 105.641 215.945 105.274Z" fill="#EFDCBD"/>
<path d="M215.463 102.785C215.438 102.832 215.396 102.873 215.34 102.906C215.283 102.938 215.211 102.963 215.126 102.979C214.996 103.005 214.857 102.996 214.718 102.953C214.392 102.853 214.112 102.578 214.042 102.425C214.025 102.389 214.061 102.351 214.125 102.341C214.188 102.331 214.253 102.352 214.268 102.389C214.32 102.499 214.558 102.75 214.831 102.833C214.913 102.858 214.986 102.864 215.055 102.85C215.153 102.83 215.213 102.797 215.239 102.746C215.324 102.581 215.066 102.28 214.896 102.158C214.856 102.13 214.864 102.089 214.916 102.063C214.967 102.038 215.04 102.044 215.081 102.073C215.252 102.197 215.585 102.548 215.463 102.783L215.463 102.785Z" fill="#EFDCBD"/>
<path d="M213.868 102.163C213.868 102.163 213.858 102.169 213.854 102.171C213.732 102.241 213.559 102.265 213.373 102.234C212.878 102.141 212.663 101.492 212.666 101.261C212.668 101.224 212.72 101.194 212.784 101.193C212.849 101.193 212.901 101.223 212.902 101.261C212.899 101.508 213.133 102.046 213.443 102.105C213.548 102.122 213.636 102.11 213.695 102.071C213.788 102.013 213.81 101.906 213.748 101.81C213.726 101.775 213.756 101.736 213.817 101.722C213.877 101.709 213.945 101.726 213.967 101.761C214.062 101.904 214.022 102.066 213.868 102.163Z" fill="#EFDCBD"/>
<path d="M227.295 107.382C227.36 107.376 227.418 107.401 227.43 107.438C227.503 107.717 228.151 108.521 228.777 108.463C228.862 108.453 228.914 108.428 228.946 108.383C229.012 108.284 228.948 108.114 228.841 107.999C228.811 107.971 228.786 107.948 228.764 107.929C228.73 107.899 228.739 107.858 228.791 107.836C228.843 107.814 228.914 107.82 228.954 107.848C228.982 107.868 229.011 107.894 229.039 107.922C229.07 107.95 229.102 107.982 229.14 108.016C229.391 108.252 229.913 108.746 230.214 108.714C230.361 108.695 230.4 108.65 230.416 108.617C230.543 108.369 229.834 107.775 229.587 107.632C229.542 107.606 229.542 107.563 229.588 107.536C229.635 107.509 229.709 107.509 229.755 107.535C229.947 107.646 230.816 108.314 230.642 108.654C230.623 108.689 230.589 108.73 230.527 108.766C230.465 108.802 230.381 108.831 230.258 108.847C229.916 108.883 229.566 108.648 229.209 108.333C229.204 108.367 229.192 108.4 229.17 108.431C229.11 108.521 228.99 108.579 228.82 108.596C227.99 108.673 227.288 107.772 227.204 107.459C227.194 107.422 227.237 107.387 227.302 107.381L227.295 107.382Z" fill="#FFF3DB"/>
<path d="M220.042 109.706L220.027 109.679C220.006 109.643 220.04 109.605 220.102 109.592C220.163 109.58 220.23 109.599 220.25 109.634L220.266 109.661C220.453 109.993 220.847 110.685 221.479 110.768C221.568 110.777 221.681 110.781 221.725 110.748C221.807 110.683 221.721 110.473 221.523 110.259C221.492 110.225 221.515 110.184 221.572 110.166C221.629 110.148 221.7 110.16 221.731 110.193C221.829 110.298 222.133 110.657 221.914 110.827C221.904 110.834 221.892 110.843 221.88 110.849C221.783 110.905 221.632 110.923 221.427 110.9C220.664 110.801 220.243 110.061 220.042 109.704L220.042 109.706Z" fill="#EFDCBD"/>
<path d="M222.234 109.942C222.29 109.923 222.362 109.932 222.395 109.965C222.92 110.473 223.457 110.805 223.703 110.77C223.824 110.753 223.912 110.62 223.944 110.403C223.951 110.367 224.007 110.337 224.073 110.341C224.138 110.343 224.186 110.376 224.179 110.413C224.146 110.625 224.067 110.766 223.935 110.842C223.883 110.873 223.824 110.892 223.755 110.902C223.228 110.975 222.486 110.32 222.191 110.034C222.159 110.002 222.176 109.961 222.233 109.941L222.234 109.942Z" fill="#EFDCBD"/>
<path d="M222.871 99.5488C223.855 99.8914 225.401 99.464 226.323 98.5939C227.244 97.7238 227.191 96.7393 226.207 96.3967C225.223 96.0541 223.677 96.4815 222.756 97.3516C221.834 98.2217 221.887 99.2062 222.871 99.5488Z" fill="#593A42"/>
<path d="M224.311 96.6468C224.794 96.4765 225.46 96.45 225.939 96.6293C226.202 96.7279 225.899 96.9507 225.639 96.8537C225.355 96.7485 224.883 96.7718 224.6 96.8724C224.333 96.9672 224.039 96.7441 224.309 96.6477L224.311 96.6468Z" fill="#936170"/>
<path d="M226.286 96.7833C226.453 96.8258 226.574 96.9009 226.632 97.0012C226.731 97.1719 226.275 97.2781 226.177 97.1058C226.158 97.0735 226.147 97.0569 226.094 97.043C225.807 96.9693 226.001 96.7088 226.286 96.7833Z" fill="#936170"/>
<path d="M220.521 98.2255C220.792 98.3814 221.158 98.4208 221.342 98.3147C221.525 98.2086 221.456 97.9963 221.187 97.8412C220.919 97.6861 220.549 97.6451 220.366 97.7512C220.182 97.8573 220.251 98.0696 220.521 98.2255Z" fill="#593A42"/>
<path d="M218.391 99.4553C218.661 99.6113 219.028 99.6506 219.211 99.5445C219.395 99.4384 219.326 99.2261 219.057 99.071C218.788 98.9159 218.419 98.8749 218.235 98.981C218.052 99.0871 218.121 99.2994 218.391 99.4553Z" fill="#593A42"/>
</g>
</g>
<g clip-path="url(#clip2_57_2)">
<path d="M132.796 -56.3697C129.646 -56.3697 127.112 -54.9065 122.043 -51.9799L16.6393 8.87486C16.5375 8.93364 16.4367 8.99182 16.337 9.04942L15.0838 5.28992L9.8069 3.58268L9.03088 4.82431V14.9125L9.04423 14.9038C9.03869 14.9632 9.03593 15.0229 9.03593 15.083C9.03593 16.9013 11.5704 18.3645 16.6393 21.2911L88.8277 62.9691C93.8965 65.8956 96.431 67.3589 99.5804 67.3589C102.73 67.3589 105.264 65.8956 110.333 62.9691L215.737 2.11425C220.741 -0.774651 223.275 -2.23767 223.339 -4.02388L223.366 -4.02225V-14.2656L219.175 -13.024L214.25 -11.1604L143.548 -51.9799C138.48 -54.9065 135.945 -56.3697 132.796 -56.3697Z" fill="#E44449"/>
<rect width="108.188" height="146.542" rx="6.20811" transform="matrix(0.866025 0.5 -0.866026 0.5 132.796 -68.5149)" fill="#F15156"/>
<g clip-path="url(#clip3_57_2)">
<path d="M80.9123 15.7909C77.1953 13.9323 73.0897 10.7866 73.6001 10.4078C74.0842 10.0507 79.5574 10.6891 81.9642 10.9908C81.1117 11.7619 80.8898 12.7216 80.7593 13.6104C80.6664 14.3472 80.7044 15.0793 80.9109 15.7901L80.9123 15.7909Z" fill="#FA9700"/>
<path d="M80.7607 13.6111C80.8912 12.7223 81.1117 11.7617 81.9656 10.9915C82.6535 11.0778 83.0929 11.136 83.0929 11.136L83.2095 16.7728C82.496 16.533 81.7132 16.1913 80.9137 15.7915C80.7087 15.08 80.6692 14.3487 80.7621 13.6119L80.7607 13.6111Z" fill="#F27006"/>
<path d="M107.948 21.4456C106.695 23.4809 103.363 24.6687 100.034 25.5526L93.3192 21.1794L102.101 15.3515C103.487 15.5864 104.883 15.8429 106.281 16.1167C108.019 17.7169 109.067 19.5852 107.946 21.4465L107.948 21.4456Z" fill="#F27006"/>
<path d="M107.948 21.4456C109.067 19.5851 108.019 17.7168 106.282 16.1158C122.832 19.3548 139.637 24.9714 139.637 24.9714L118.172 37.3644L100.036 25.5533C103.364 24.6695 106.695 23.4826 107.949 21.4464L107.948 21.4456Z" fill="#FA9700"/>
<path d="M73.564 10.5473C76.0751 10.5182 78.353 11.6897 79.8631 12.849C81.1434 13.8588 81.6014 14.9771 81.6232 16.1344C78.0291 14.4821 73.7453 11.3254 73.5626 10.5482L73.564 10.5473Z" fill="#FEB8AC"/>
<path d="M105.589 22.6756C110.932 19.5909 102.754 13.7145 98.739 10.9355C94.7229 8.15724 87.7319 7.85231 83.8232 10.109C79.9145 12.3657 80.4427 16.402 85.2547 18.7207C90.0667 21.0394 100.246 25.7602 105.589 22.6756Z" fill="#FFF3DB"/>
<path d="M84.7444 9.64977C88.7552 7.91326 95.0199 8.36364 98.7363 10.9354C100.742 12.322 103.784 14.4828 105.662 16.6818C100.932 15.047 95.9486 15.7476 93.5044 14.6623C91.1117 13.6 86.6482 10.8442 84.743 9.64894L84.7444 9.64977Z" fill="#FA9700"/>
<path d="M83.0265 10.6417C85.0952 11.7425 89.8699 14.3187 91.7098 15.7001C93.5896 17.1113 92.3761 19.9883 95.2079 22.7194C91.399 21.6349 87.6579 19.8776 85.2547 18.7208C80.7989 16.5743 80.0202 12.9582 83.0279 10.6425L83.0265 10.6417Z" fill="#FA9700"/>
<path d="M91.0448 17.724C90.3256 18.1392 88.9882 18.0154 87.9965 17.4429C87.8693 17.3694 87.8706 17.2499 87.9994 17.1755C88.1282 17.1012 88.3353 17.1004 88.4625 17.1738C89.1712 17.583 90.1433 17.7132 90.5861 17.4575C91.029 17.2018 90.8021 16.6414 90.0934 16.2322C89.9662 16.1588 89.9675 16.0392 90.0963 15.9649C90.2251 15.8905 90.4322 15.8898 90.5593 15.9632C91.551 16.5358 91.764 17.3087 91.0463 17.7232L91.0448 17.724Z" fill="#593A42"/>
<path d="M97.58 13.9508C96.8623 14.3652 95.5234 14.2422 94.5317 13.6696C94.4045 13.5962 94.4058 13.4767 94.5346 13.4023C94.6634 13.3279 94.8705 13.3272 94.9977 13.4006C95.7064 13.8098 96.6785 13.9399 97.1214 13.6843C97.5642 13.4286 97.3374 12.8682 96.6286 12.459C96.5014 12.3856 96.5027 12.266 96.6315 12.1917C96.7603 12.1173 96.9674 12.1165 97.0946 12.19C98.0863 12.7625 98.2993 13.5355 97.5815 13.9499L97.58 13.9508Z" fill="#593A42"/>
<path d="M104.903 19.3904C105.989 20.0174 105.748 21.1731 104.367 21.9702C102.987 22.7672 100.983 22.9074 99.8975 22.2804C98.8115 21.6534 99.0513 20.4985 100.435 19.6997C101.818 18.901 103.817 18.7634 104.903 19.3904Z" fill="#593A42"/>
<path d="M99.9153 20.3923C99.52 20.7756 99.4919 21.239 99.8024 21.6389C100.019 21.9195 100.741 21.6778 100.525 21.3996C100.333 21.1529 100.396 20.8571 100.635 20.6254C100.908 20.3588 100.191 20.1256 99.9167 20.3914L99.9153 20.3923Z" fill="#936170"/>
<path d="M100.325 21.7532C100.141 21.8145 100.039 21.9726 100.164 22.0801C100.227 22.133 100.282 22.1868 100.345 22.2397C100.472 22.3463 100.699 22.397 100.909 22.3281C101.091 22.2677 101.196 22.1079 101.068 22.0021C101.005 21.9492 100.949 21.8946 100.887 21.8425C100.76 21.7359 100.534 21.6852 100.323 21.7541L100.325 21.7532Z" fill="#936170"/>
<path d="M112.959 30.6818C110.796 28.8317 102.494 21.0355 112.366 21.9276C116.728 22.3102 120.85 23.6875 124.454 24.9678C127.548 26.0541 130.525 27.2919 133.423 28.559L120.306 36.132C117.729 34.3714 115.215 32.5823 112.959 30.6818Z" fill="#FFF3DB"/>
<path d="M116.628 -4.25252C113.078 -7.32634 110.25 -10.754 116.917 -13.4018C123.583 -16.0496 128.681 -12.5398 128.515 -12.4437C128.349 -12.3476 140.639 -12.106 139.358 -9.2163C138.077 -6.3266 130.662 -5.48594 130.662 -5.48594C130.662 -5.48594 128.266 -4.8371 126.225 -4.73418C126.225 -4.73418 133.482 1.73834 150.86 2.92859C160.485 5.99105 169.103 7.95548 169.103 7.95548L149.556 19.2414C136.128 12.0658 120.288 -1.08362 116.628 -4.25418L116.628 -4.25252Z" fill="#FFF3DB"/>
<path d="M157.848 14.4573L149.558 19.243C146.661 17.6936 143.648 15.8657 140.671 13.9197C141.859 13.4156 143.288 12.9828 144.827 12.5861C149.969 11.2988 155.089 11.8903 157.85 14.4573L157.848 14.4573Z" fill="#593A42"/>
<path d="M153.674 16.8669C153.674 16.8669 139.045 7.303 127.069 5.63559C115.093 3.96984 112.451 8.63868 113.453 11.6272C113.453 11.6272 112.385 14.5377 109.406 16.1733C109.406 16.1733 116.045 18.4571 119.503 13.7429C119.503 13.7429 124.861 11.0733 131.717 13.9117C138.571 16.751 139.071 25.298 139.071 25.298L153.674 16.8669Z" fill="#FF740C"/>
<path d="M113.397 11.7685C118.025 11.2253 119.503 13.743 119.503 13.743C116.046 18.458 109.406 16.1733 109.406 16.1733C111.997 14.7517 113.142 12.3664 113.396 11.7677L113.397 11.7685Z" fill="#FFF3DB"/>
<path d="M136.692 13.1049C144.313 14.5839 148.757 16.7919 151.114 18.3449L139.07 25.2988C139.07 25.2988 138.571 16.751 131.715 13.9126C124.861 11.0733 119.502 13.7437 119.502 13.7437C119.502 13.7437 123.828 10.6088 136.691 13.1057L136.692 13.1049Z" fill="#ED4714"/>
<path d="M108.741 16.8722C109.963 16.8944 110.984 16.5145 111.021 16.0229C111.058 15.5329 110.096 15.118 108.874 15.0959C107.652 15.0738 106.633 15.4544 106.596 15.9444C106.559 16.4344 107.521 16.8493 108.743 16.8714L108.741 16.8722Z" fill="#593A42"/>
<path d="M116.104 12.7433C117.36 13.0202 118.549 13.7655 117.58 14.5362C117.419 14.6638 117.048 14.5448 117.211 14.4163C118.001 13.7866 117.012 13.2074 115.994 12.982C115.741 12.9264 115.85 12.6869 116.104 12.7433Z" fill="#593A42"/>
<path d="M107.624 15.3412C107.832 15.3064 108.035 15.2832 108.254 15.2841C108.806 15.2854 108.759 15.7779 108.21 15.7766C108.067 15.7763 107.933 15.8008 107.798 15.8229C107.268 15.9112 107.096 15.4295 107.625 15.342L107.624 15.3412Z" fill="#936170"/>
<path d="M109.069 15.2397C109.237 15.2283 109.376 15.2319 109.541 15.2504C109.77 15.277 109.883 15.4393 109.819 15.5574C109.742 15.6955 109.51 15.747 109.283 15.7213C109.269 15.7213 109.256 15.7205 109.242 15.7206C109.011 15.7364 108.788 15.6741 108.737 15.5332C108.696 15.4121 108.838 15.2555 109.069 15.2397Z" fill="#936170"/>
<path d="M96.6036 29.0494C96.6036 29.0494 95.3349 28.1699 94.5317 27.1915C95.2663 27.2095 96.0056 27.1902 96.7325 27.122L97.2013 28.442L96.6022 29.0503L96.6036 29.0494Z" fill="#EFDCBD"/>
<path d="M94.5331 27.1907C94.2919 26.8977 94.0938 26.5962 93.9848 26.306C93.9457 26.2016 93.9253 26.0946 93.9179 25.985C93.6646 25.8705 93.4305 25.7153 93.3791 25.5469C93.3357 25.4417 93.3859 25.3236 93.603 25.3236C93.7713 25.3238 93.8926 25.4073 93.9881 25.4791C93.9896 25.475 93.9925 25.4716 93.9911 25.4675C93.7552 25.2176 93.3812 24.9649 93.3642 24.6744C93.367 24.5491 93.4816 24.4648 93.7025 24.5088C93.9709 24.5601 94.1456 24.7579 94.2822 24.8853C94.268 24.7434 94.1581 24.0082 94.3281 23.849C94.4835 23.7081 94.6333 23.818 94.7068 23.9306C94.7861 24.0482 94.8019 24.1794 94.799 24.3097C95.5558 23.617 96.6423 23.1432 97.4425 23.3461C99.0888 23.7619 96.3474 26.0459 96.3474 26.0459L96.7297 27.1204C96.0028 27.1887 95.262 27.2072 94.5288 27.1899L94.5331 27.1907Z" fill="#FFF3DB"/>
<path d="M91.3138 29.9239C91.3138 29.9239 90.4344 28.4252 91.1185 28.3239C91.8012 28.2235 92.2588 29.3783 92.2588 29.3783C92.2588 29.3783 92.8078 27.5647 93.607 27.7287C94.4076 27.8935 93.7545 29.1022 93.7545 29.1022C93.7545 29.1022 97.3083 27.7351 98.292 27.4609C99.2757 27.1867 101.195 27.0568 100.459 28.167L102.063 29.5393C102.063 29.5393 105.03 27.2387 107.197 28.0436C109.362 28.8477 109.735 29.9049 109.392 30.1029C109.049 30.3009 108.282 30.1559 108.282 30.1559C108.282 30.1559 109.999 30.9367 109.515 31.4142C109.194 31.7317 108.012 31.3383 108.012 31.3383C108.012 31.3383 109.515 32.5084 108.763 32.9113C108.362 33.1261 107.14 32.5793 107.14 32.5793C107.14 32.5793 107.472 33.9995 106.575 34.1746C105.678 34.3505 103.292 34.0637 103.292 34.0637C103.292 34.0637 107.927 35.1543 109.197 36.0845C110.465 37.0155 109.907 37.387 108.883 37.3908C108.883 37.3908 111.683 38.7097 112.816 40.4532L102.301 46.524C102.301 46.524 92.3852 33.0707 91.2078 31.5972C91.2078 31.5972 88.2543 30.4 88.7966 29.8575C89.3302 29.3234 91.311 29.9222 91.311 29.9222L91.3138 29.9239Z" fill="#FFF3DB"/>
<path d="M109.558 40.5606C108.519 39.8205 105.152 38.2512 107.858 37.5672C106.774 37.2225 104.204 36.4871 106.304 35.8751C105.3 35.716 101.519 35.1711 101.608 34.3804C101.666 33.8173 103.364 33.9738 104.778 34.1986C103.994 34.15 103.291 34.0654 103.291 34.0654C103.291 34.0654 107.927 35.156 109.197 36.0862C110.465 37.0172 109.907 37.3887 108.883 37.3924C108.883 37.3924 111.683 38.7114 112.816 40.4549L107.595 43.4694C107.197 43.1363 106.918 42.7662 106.839 42.3596C106.647 41.4537 107.908 40.4952 109.558 40.5589L109.558 40.5606Z" fill="#EFDCBD"/>
<path d="M97.1623 23.729C97.6328 24.2296 95.9506 25.9119 95.9506 25.9119L96.5958 28.5904C96.5958 28.5904 94.6557 26.2437 94.5481 25.9627C94.4404 25.6816 96.5695 23.1027 97.1594 23.729L97.1623 23.729Z" fill="#FEB8AC"/>
<path d="M85.6373 30.9159C85.766 30.8515 85.9542 30.8683 86.1079 30.8851C86.1036 30.8827 86.1022 30.8785 86.098 30.8744C85.6331 30.7781 85.0598 30.7329 84.7156 30.5224C84.5757 30.4283 84.5654 30.3221 84.7831 30.2706C85.0455 30.2066 85.4055 30.2874 85.6538 30.3305C85.4809 30.2307 84.5604 29.7243 84.5077 29.5419C84.465 29.3785 84.7063 29.4025 84.8897 29.4583C85.0847 29.5157 85.2462 29.6072 85.3932 29.7055C85.1777 28.9026 85.465 28.1361 86.305 27.9828C88.0326 27.6668 88.552 30.408 88.552 30.408L91.9311 31.866L92.1695 32.5467C92.1695 32.5467 88.8438 32.2558 87.0459 31.5019C86.8971 31.4393 86.7598 31.3668 86.6298 31.2884C86.3061 31.2987 85.9512 31.2726 85.7194 31.1672C85.5677 31.1046 85.4711 30.9987 85.6345 30.9159L85.6373 30.9159Z" fill="#FFF3DB"/>
<path d="M86.525 28.3755C87.4533 28.5689 88.0926 30.4603 88.0926 30.4603L91.6618 32.0264C91.6618 32.0264 87.4863 31.1981 87.0841 31.0294C86.6819 30.8607 85.3586 28.1316 86.525 28.3739L86.525 28.3755Z" fill="#FEB8AC"/>
<path d="M97.7297 30.4965C97.7788 30.615 97.7431 30.7231 97.627 30.8165C97.2977 31.0825 96.4879 31.0979 95.2165 30.8568C95.1548 30.8446 95.1221 30.8074 95.1441 30.7716C95.1632 30.7358 95.231 30.7165 95.2927 30.7287C96.742 31.0024 97.2596 30.8834 97.438 30.7391C97.5149 30.6783 97.5358 30.6101 97.5021 30.5305C97.4069 30.3017 96.8891 30.0463 96.5508 29.9495C96.5035 29.9356 96.4765 29.905 96.4898 29.8742C96.5016 29.8443 96.5479 29.8225 96.6025 29.8206C96.9736 29.8127 97.3573 29.8387 97.778 29.8994C97.8483 29.9099 97.9215 29.9204 97.9962 29.9318C98.3737 29.9894 98.8015 30.0559 99.1545 29.9957C99.277 29.9744 99.3608 29.936 99.4016 29.881C99.4498 29.8152 99.4364 29.729 99.3597 29.6429C99.2064 29.4575 98.8681 29.3591 98.5399 29.2631L98.4682 29.2418C98.4223 29.2287 98.3968 29.1989 98.4072 29.1682C98.4176 29.1391 98.4595 29.1165 98.5127 29.1138C98.6005 29.1093 98.6883 29.1049 98.7775 29.1012C99.1904 29.0823 99.6177 29.0633 99.9754 28.964C100.146 28.9136 100.238 28.8568 100.248 28.797C100.261 28.7081 100.102 28.5858 99.814 28.4631C99.7625 28.4417 99.7515 28.3986 99.7906 28.3678C99.8269 28.3369 99.9032 28.3308 99.9562 28.353C100.212 28.4609 100.511 28.6283 100.485 28.8069C100.468 28.9174 100.333 29.01 100.082 29.0857C99.7256 29.1841 99.3299 29.2113 98.9414 29.2293C99.1965 29.3131 99.4384 29.4176 99.5746 29.5798C99.6826 29.7007 99.6999 29.8293 99.6211 29.9325C99.5934 29.97 99.5542 30.0025 99.505 30.0309C99.4326 30.0727 99.3374 30.1046 99.2236 30.1241C98.8058 30.1937 98.345 30.1231 97.9372 30.0615C97.864 30.0493 97.7922 30.0396 97.7248 30.0291C97.4807 29.9935 97.2509 29.971 97.0295 29.9602C97.3372 30.0978 97.6571 30.2975 97.7384 30.4948L97.7297 30.4965Z" fill="#EFDCBD"/>
<path d="M98.1521 32.6254C98.1179 32.594 98.1342 32.5533 98.189 32.5315C98.2439 32.5114 98.3171 32.5202 98.3513 32.5516C98.5193 32.7038 98.761 32.8316 99.0905 32.9416C99.7281 33.1477 99.9887 33.1243 100.093 33.0692C100.294 32.953 99.949 32.6803 99.8362 32.5985C99.6765 32.4746 99.4805 32.3865 99.2538 32.3375C99.2036 32.3285 99.1649 32.3212 99.1376 32.3155C99.0802 32.3024 99.0504 32.2652 99.0695 32.231C99.09 32.1961 99.1535 32.1776 99.2138 32.1874C99.2583 32.1947 99.2999 32.202 99.3429 32.2118C99.5956 32.254 99.9935 32.2866 100.18 32.2303C100.229 32.2152 100.256 32.196 100.268 32.1694C100.283 32.1378 100.273 32.1121 100.24 32.0865C100.069 31.9576 99.388 31.9053 99.0774 31.9064C99.0112 31.9066 98.9598 31.8769 98.9602 31.8388C98.9606 31.8006 99.0127 31.7705 99.0789 31.7702C99.0904 31.7702 100.126 31.7764 100.427 32.0019C100.505 32.0606 100.529 32.1294 100.496 32.2009C100.468 32.265 100.396 32.3167 100.288 32.3495C100.164 32.3865 100.004 32.3978 99.8399 32.3951C99.9042 32.4322 99.9656 32.471 100.023 32.5157C100.409 32.799 100.493 33.0295 100.254 33.1674C99.8926 33.3596 99.2005 33.1355 98.9727 33.0608C98.6102 32.9384 98.3414 32.7966 98.1535 32.6263L98.1521 32.6254Z" fill="#EFDCBD"/>
<path d="M102.18 38.692C102.239 38.6776 102.308 38.694 102.333 38.7288C102.439 38.8803 102.857 39.0714 103.259 39.1546C103.496 39.2027 103.697 39.2086 103.821 39.17C103.971 39.1196 104.045 39.0438 104.052 38.9392C104.063 38.7034 103.702 38.3826 103.384 38.2642C103.329 38.2444 103.315 38.203 103.349 38.1721C103.382 38.1396 103.456 38.1302 103.509 38.1491C104.077 38.3455 104.697 38.4711 104.807 38.4126C104.83 38.3992 104.839 38.3394 104.726 38.202C104.355 37.7708 103.545 37.303 102.797 37.0882C102.747 37.0743 102.721 37.0412 102.737 37.0104C102.752 36.9788 102.803 36.9578 102.859 36.9601C103.327 36.9767 104.13 36.9389 104.176 36.6963C104.191 36.6215 104.153 36.5577 104.057 36.5008C103.742 36.3085 102.895 36.2526 102.531 36.2664C102.466 36.2692 102.411 36.2403 102.408 36.2038C102.404 36.1664 102.455 36.1339 102.52 36.1311C102.889 36.1173 103.835 36.167 104.228 36.4072C104.369 36.4938 104.431 36.5966 104.407 36.7096C104.354 36.9995 103.739 37.0773 103.283 37.0947C103.956 37.3497 104.599 37.7525 104.934 38.1414C104.988 38.206 105.152 38.403 104.97 38.5083C104.967 38.5099 104.964 38.5116 104.961 38.5133C104.778 38.6111 104.358 38.5412 103.993 38.4487C104.164 38.5992 104.29 38.7789 104.282 38.9433C104.277 39.0554 104.209 39.1487 104.084 39.2213C104.039 39.2472 103.988 39.2698 103.93 39.29C103.74 39.3488 103.478 39.3464 103.174 39.2844C102.702 39.1874 102.244 38.9715 102.111 38.7844C102.086 38.7496 102.118 38.7096 102.177 38.6953L102.18 38.692Z" fill="#EFDCBD"/>
<path d="M96.2606 36.7585C96.2653 36.7211 96.3188 36.6918 96.3849 36.6933C96.4482 36.6947 96.4996 36.7261 96.4949 36.7634C96.4656 37.079 96.7492 37.4366 97.2692 37.4895C97.456 37.5005 97.6131 37.4692 97.7102 37.4033C97.8145 37.3315 97.8415 37.2251 97.7839 37.1099C97.7698 37.0801 97.7917 37.0493 97.8365 37.0317C97.8841 37.0157 97.943 37.0197 97.9802 37.0411C98.3831 37.2738 98.8214 37.4382 98.9511 37.4079C99.0175 37.3894 99.035 37.3677 99.0409 37.3527C99.0881 37.243 98.8128 37.0339 98.6959 36.9447L98.6645 36.9199C98.6246 36.8902 98.6337 36.8486 98.6886 36.8252C98.7392 36.8026 98.8139 36.8089 98.8524 36.8379L98.8837 36.8627C99.0449 36.9858 99.3444 37.2138 99.2692 37.3859C99.2573 37.4142 99.2311 37.4492 99.1746 37.4818C99.1428 37.5002 99.0995 37.5186 99.0446 37.5337C98.7765 37.5961 98.3371 37.4109 98.0467 37.265C98.0357 37.3506 97.9817 37.428 97.8904 37.4906C97.7383 37.5933 97.5106 37.6406 97.2332 37.6242C96.5553 37.5552 96.2263 37.1264 96.2606 36.7585Z" fill="#EFDCBD"/>
<path d="M95.7786 34.2695C95.7537 34.3169 95.7115 34.3578 95.6551 34.3903C95.5987 34.4229 95.5265 34.4481 95.4415 34.4642C95.3118 34.4896 95.1724 34.4809 95.0334 34.4374C94.708 34.3382 94.4278 34.0627 94.3575 33.9102C94.3407 33.8738 94.377 33.8363 94.4404 33.8261C94.5038 33.8159 94.5683 33.8364 94.5837 33.8737C94.6357 33.9839 94.8731 34.2346 95.1468 34.3175C95.2285 34.3429 95.3018 34.3485 95.371 34.3349C95.469 34.3146 95.5283 34.282 95.5547 34.2305C95.6399 34.0658 95.3815 33.7645 95.2117 33.6431C95.1718 33.615 95.1794 33.5743 95.2315 33.5476C95.2821 33.5233 95.3554 33.5288 95.3967 33.5577C95.5679 33.6817 95.9006 34.0325 95.7787 34.2679L95.7786 34.2695Z" fill="#EFDCBD"/>
<path d="M94.1836 33.6477C94.1836 33.6477 94.1735 33.6536 94.1691 33.6561C94.0476 33.7263 93.8748 33.7501 93.6882 33.7193C93.1931 33.6256 92.9787 32.9771 92.9813 32.7463C92.9831 32.709 93.0352 32.6789 93.0999 32.6778C93.1646 32.6784 93.2161 32.7081 93.2171 32.7455C93.2144 32.9929 93.4486 33.5308 93.7586 33.5895C93.8634 33.6065 93.9512 33.5954 94.0106 33.5562C94.1033 33.4977 94.126 33.3906 94.0638 33.2945C94.0412 33.2597 94.0718 33.2206 94.1324 33.2071C94.1929 33.1935 94.2603 33.2107 94.2829 33.2455C94.3777 33.3888 94.3371 33.5508 94.1836 33.6477Z" fill="#EFDCBD"/>
<path d="M107.611 38.8665C107.675 38.8604 107.734 38.886 107.745 38.9224C107.818 39.202 108.467 40.0057 109.093 39.9478C109.178 39.9384 109.23 39.9133 109.262 39.8684C109.328 39.7693 109.263 39.5985 109.157 39.4835C109.127 39.4562 109.101 39.4331 109.08 39.4141C109.046 39.3843 109.055 39.3427 109.107 39.321C109.159 39.2992 109.229 39.3047 109.269 39.3328C109.298 39.3527 109.326 39.3791 109.355 39.4072C109.386 39.4354 109.417 39.4668 109.456 39.5007C109.706 39.7372 110.229 40.231 110.529 40.1991C110.676 40.1803 110.716 40.1345 110.732 40.1021C110.858 39.8542 110.15 39.2599 109.903 39.1172C109.857 39.0908 109.858 39.0476 109.904 39.0208C109.95 38.9941 110.025 38.9938 110.071 39.0202C110.262 39.1308 111.132 39.7984 110.957 40.1386C110.938 40.1744 110.905 40.2152 110.842 40.2511C110.78 40.2871 110.696 40.3156 110.574 40.3318C110.231 40.3679 109.882 40.1326 109.524 39.8176C109.519 39.8516 109.508 39.8849 109.486 39.9157C109.426 40.0064 109.306 40.0641 109.136 40.0813C108.305 40.1583 107.603 39.2567 107.519 38.944C107.509 38.9067 107.553 38.8717 107.618 38.8656L107.611 38.8665Z" fill="#FFF3DB"/>
<path d="M100.358 41.191L100.342 41.1637C100.321 41.128 100.356 41.0897 100.418 41.077C100.479 41.0652 100.546 41.084 100.566 41.1188L100.581 41.1462C100.769 41.4784 101.162 42.1702 101.794 42.2526C101.883 42.2622 101.997 42.266 102.04 42.2326C102.123 42.1684 102.036 41.9578 101.839 41.7435C101.807 41.7104 101.831 41.6688 101.887 41.6512C101.945 41.6327 102.015 41.6449 102.046 41.678C102.144 41.7831 102.448 42.1423 102.229 42.3116C102.219 42.3191 102.208 42.3275 102.196 42.3342C102.099 42.3901 101.948 42.4081 101.742 42.3848C100.98 42.2855 100.558 41.5456 100.358 41.1893L100.358 41.191Z" fill="#EFDCBD"/>
<path d="M102.55 41.427C102.606 41.4077 102.678 41.4174 102.71 41.4497C103.235 41.9584 103.772 42.2901 104.019 42.2552C104.14 42.2382 104.227 42.105 104.26 41.8882C104.266 41.8517 104.323 41.8224 104.389 41.8255C104.453 41.8277 104.502 41.8608 104.494 41.8981C104.462 42.11 104.383 42.2514 104.251 42.3274C104.199 42.3575 104.14 42.3768 104.07 42.387C103.543 42.4604 102.801 41.8047 102.507 41.5193C102.474 41.4871 102.492 41.4455 102.548 41.4262L102.55 41.427Z" fill="#EFDCBD"/>
<path d="M103.187 31.0338C104.171 31.3764 105.717 30.949 106.638 30.0789C107.559 29.2088 107.507 28.2243 106.523 27.8817C105.539 27.5391 103.992 27.9665 103.071 28.8366C102.15 29.7067 102.202 30.6912 103.187 31.0338Z" fill="#593A42"/>
<path d="M104.626 28.132C105.11 27.9617 105.776 27.9352 106.254 28.1144C106.518 28.2131 106.215 28.4358 105.954 28.3388C105.671 28.2336 105.199 28.2569 104.916 28.3576C104.649 28.4523 104.355 28.2293 104.625 28.1328L104.626 28.132Z" fill="#936170"/>
<path d="M106.602 28.2683C106.768 28.3109 106.89 28.386 106.948 28.4862C107.046 28.6569 106.591 28.7632 106.492 28.5909C106.474 28.5585 106.462 28.542 106.409 28.5281C106.122 28.4544 106.317 28.1938 106.602 28.2683Z" fill="#936170"/>
<path d="M100.837 29.7107C101.107 29.8666 101.473 29.906 101.657 29.7999C101.841 29.6937 101.771 29.4815 101.503 29.3264C101.234 29.1713 100.865 29.1303 100.681 29.2364C100.497 29.3425 100.567 29.5548 100.837 29.7107Z" fill="#593A42"/>
<path d="M98.7068 30.9406C98.9769 31.0965 99.3432 31.1358 99.527 31.0297C99.7107 30.9236 99.6412 30.7113 99.3725 30.5562C99.1039 30.4011 98.7348 30.3601 98.551 30.4663C98.3672 30.5724 98.4368 30.7846 98.7068 30.9406Z" fill="#593A42"/>
</g>
</g>
<defs>
<clipPath id="clip0_57_2">
<rect width="194" height="136" fill="white" transform="translate(126)"/>
</clipPath>
<clipPath id="clip1_57_2">
<rect width="118.748" height="60.3017" rx="9.31217" transform="matrix(0.866025 -0.5 0.866025 0.5 169.766 84.8897)" fill="white"/>
</clipPath>
<clipPath id="clip2_57_2">
<rect width="220.578" height="62.7332" fill="white" transform="translate(6 13.009)"/>
</clipPath>
<clipPath id="clip3_57_2">
<rect width="118.748" height="60.3017" rx="9.31217" transform="matrix(0.866025 -0.5 0.866025 0.5 50.0811 16.3747)" fill="white"/>
</clipPath>
</defs>
</svg>
